<?xml version="1.0" encoding="UTF-8" standalone="no"?>
<!-- Creator: CorelDRAW X6 -->

<svg
   xmlns:dc="http://purl.org/dc/elements/1.1/"
   xmlns:cc="http://creativecommons.org/ns#"
   xmlns:rdf="http://www.w3.org/1999/02/22-rdf-syntax-ns#"
   xmlns:svg="http://www.w3.org/2000/svg"
   xmlns="http://www.w3.org/2000/svg"
   xmlns:sodipodi="http://sodipodi.sourceforge.net/DTD/sodipodi-0.dtd"
   xmlns:inkscape="http://www.inkscape.org/namespaces/inkscape"
   xml:space="preserve"
   width="285.85202mm"
   height="105.46999mm"
   version="1.1"
   style="clip-rule:evenodd;fill-rule:evenodd;image-rendering:optimizeQuality;shape-rendering:geometricPrecision;text-rendering:geometricPrecision"
   viewBox="0 0 28585.202 10546.999"
   id="svg2"
   inkscape:version="0.91 r13725"
   sodipodi:docname="https://math-drills.com/images/math-drills-footer.svg"><metadata
     id="metadata267"><rdf:RDF><cc:Work
         rdf:about=""><dc:format>image/svg+xml</dc:format><dc:type
           rdf:resource="http://purl.org/dc/dcmitype/StillImage" /><dc:title /></cc:Work></rdf:RDF></metadata><sodipodi:namedview
     pagecolor="#ffffff"
     bordercolor="#666666"
     borderopacity="1"
     objecttolerance="10"
     gridtolerance="10"
     guidetolerance="10"
     inkscape:pageopacity="0"
     inkscape:pageshadow="2"
     inkscape:window-width="2560"
     inkscape:window-height="1377"
     id="namedview265"
     showgrid="false"
     inkscape:zoom="1.0961335"
     inkscape:cx="385.61091"
     inkscape:cy="280.09714"
     inkscape:window-x="-8"
     inkscape:window-y="-8"
     inkscape:window-maximized="1"
     inkscape:current-layer="Capa_x0020_1"
     fit-margin-top="0"
     fit-margin-left="0"
     fit-margin-right="0"
     fit-margin-bottom="0"
     showborder="true"
     inkscape:showpageshadow="false" /><defs
     id="defs4"><style
       type="text/css"
       id="style6"><![CDATA[
    .str0 {stroke:white;stroke-width:20}
    .fil0 {fill:#003366}
    .fil2 {fill:white}
    .fil3 {fill:#FFAA00;fill-rule:nonzero}
    .fil1 {fill:white;fill-rule:nonzero}
   ]]></style><clipPath
       id="id0"><path
         d="m 3529,10587 24211,0 327,3241 -24211,0 -327,-3241 z"
         id="path9"
         inkscape:connector-curvature="0" /></clipPath><clipPath
       id="id1"><path
         d="m 13488,13677 10375,0 0,925 -10375,0 0,-925 z"
         id="path12"
         inkscape:connector-curvature="0" /></clipPath><filter
       style="color-interpolation-filters:sRGB"
       inkscape:label="Drop Shadow"
       id="filter4395"><feFlood
         flood-opacity="1"
         flood-color="rgb(0,0,0)"
         result="flood"
         id="feFlood4397" /><feComposite
         in="flood"
         in2="SourceGraphic"
         operator="in"
         result="composite1"
         id="feComposite4399" /><feGaussianBlur
         in="composite1"
         stdDeviation="50"
         result="blur"
         id="feGaussianBlur4401" /><feOffset
         dx="50"
         dy="50"
         result="offset"
         id="feOffset4403" /><feComposite
         in="SourceGraphic"
         in2="offset"
         operator="over"
         result="composite2"
         id="feComposite4405" /></filter><filter
       style="color-interpolation-filters:sRGB"
       inkscape:label="Drop Shadow"
       id="filter4407"><feFlood
         flood-opacity="1"
         flood-color="rgb(0,0,0)"
         result="flood"
         id="feFlood4409" /><feComposite
         in="flood"
         in2="SourceGraphic"
         operator="in"
         result="composite1"
         id="feComposite4411" /><feGaussianBlur
         in="composite1"
         stdDeviation="50"
         result="blur"
         id="feGaussianBlur4413" /><feOffset
         dx="50"
         dy="50"
         result="offset"
         id="feOffset4415" /><feComposite
         in="SourceGraphic"
         in2="offset"
         operator="over"
         result="composite2"
         id="feComposite4417" /></filter></defs><g
     id="Capa_x0020_1"
     transform="translate(-1365.8999,-5085.0004)"><metadata
       id="CorelCorpID_0Corel-Layer" /><rect
       class="fil0"
       x="1360.4541"
       y="5086.7856"
       width="28597.293"
       height="10547"
       id="rect16"
       style="fill:#003366" /><path
       class="fil1"
       d="m 3582,5999 c -4,-8 -1,-17 7,-21 8,-4 17,-1 21,7 l 3921,7578 c 4,8 1,17 -7,21 -8,4 -17,1 -21,-7 L 3582,5999 Z"
       id="path18"
       inkscape:connector-curvature="0"
       style="fill:#ffffff;fill-rule:nonzero" /><path
       class="fil1"
       d="m 4050,6029 c -4,-8 0,-17 8,-20 8,-4 17,0 20,8 l 3306,7192 c 4,8 0,17 -8,20 -8,4 -17,0 -20,-8 L 4050,6029 Z"
       id="path20"
       inkscape:connector-curvature="0"
       style="fill:#ffffff;fill-rule:nonzero" /><path
       class="fil1"
       d="m 4474,6074 c -3,-8 1,-17 9,-20 8,-3 17,1 20,9 l 2738,6749 c 3,8 -1,17 -9,20 -8,3 -17,-1 -20,-9 L 4474,6074 Z"
       id="path22"
       inkscape:connector-curvature="0"
       style="fill:#ffffff;fill-rule:nonzero" /><path
       class="fil1"
       d="m 4872,6133 c -3,-8 1,-17 9,-20 8,-3 17,1 20,9 l 2246,6390 c 3,8 -1,17 -9,20 -8,3 -17,-1 -20,-9 L 4872,6133 Z"
       id="path24"
       inkscape:connector-curvature="0"
       style="fill:#ffffff;fill-rule:nonzero" /><path
       class="fil1"
       d="m 5238,6204 c -2,-8 2,-17 10,-19 8,-2 17,2 19,10 l 1795,6007 c 2,8 -2,17 -10,19 -8,2 -17,-2 -19,-10 L 5238,6204 Z"
       id="path26"
       inkscape:connector-curvature="0"
       style="fill:#ffffff;fill-rule:nonzero" /><path
       class="fil1"
       d="m 5568,6281 c -2,-8 3,-17 11,-19 8,-2 17,3 19,11 l 1384,5558 c 2,8 -3,17 -11,19 -8,2 -17,-3 -19,-11 L 5568,6281 Z"
       id="path28"
       inkscape:connector-curvature="0"
       style="fill:#ffffff;fill-rule:nonzero" /><path
       class="fil1"
       d="m 5871,6366 c -2,-8 4,-17 12,-18 8,-2 17,4 18,12 l 1027,5142 c 2,8 -4,17 -12,18 -8,2 -17,-4 -18,-12 L 5871,6366 Z"
       id="path30"
       inkscape:connector-curvature="0"
       style="fill:#ffffff;fill-rule:nonzero" /><path
       class="fil1"
       d="m 6152,6458 c -1,-8 5,-16 13,-18 8,-1 16,5 18,13 l 711,4732 c 1,8 -5,16 -13,18 -8,1 -16,-5 -18,-13 L 6152,6458 Z"
       id="path32"
       inkscape:connector-curvature="0"
       style="fill:#ffffff;fill-rule:nonzero" /><path
       class="fil1"
       d="m 6410,6556 c -1,-8 5,-16 14,-17 8,-1 16,5 17,14 l 439,4382 c 1,8 -5,16 -14,17 -8,1 -16,-5 -17,-14 L 6410,6556 Z"
       id="path34"
       inkscape:connector-curvature="0"
       style="fill:#ffffff;fill-rule:nonzero" /><path
       class="fil1"
       d="m 6629,6649 c 0,-9 6,-16 15,-16 9,0 16,6 16,15 l 221,4059 c 0,9 -6,16 -15,16 -9,0 -16,-6 -16,-15 L 6629,6649 Z"
       id="path36"
       inkscape:connector-curvature="0"
       style="fill:#ffffff;fill-rule:nonzero" /><path
       class="fil1"
       d="m 6835,6747 c 0,-9 7,-15 15,-15 9,0 15,7 15,15 l 25,3746 c 0,9 -7,15 -15,15 -9,0 -15,-7 -15,-15 l -25,-3746 z"
       id="path38"
       inkscape:connector-curvature="0"
       style="fill:#ffffff;fill-rule:nonzero" /><path
       class="fil1"
       d="m 7012,6842 c 0,-9 7,-15 16,-15 9,0 15,7 15,16 l -114,3341 c 0,9 -7,15 -16,15 -9,0 -15,-7 -15,-16 l 114,-3341 z"
       id="path40"
       inkscape:connector-curvature="0"
       style="fill:#ffffff;fill-rule:nonzero" /><path
       class="fil1"
       d="m 7182,6942 c 1,-9 8,-15 17,-14 9,1 15,8 14,17 l -242,3033 c -1,9 -8,15 -17,14 -9,-1 -15,-8 -14,-17 l 242,-3033 z"
       id="path42"
       inkscape:connector-curvature="0"
       style="fill:#ffffff;fill-rule:nonzero" /><path
       class="fil1"
       d="m 7335,7041 c 1,-8 9,-15 17,-13 8,1 15,9 13,17 l -336,2730 c -1,8 -9,15 -17,13 -8,-1 -15,-9 -13,-17 l 336,-2730 z"
       id="path44"
       inkscape:connector-curvature="0"
       style="fill:#ffffff;fill-rule:nonzero" /><path
       class="fil1"
       d="m 7475,7143 c 1,-8 9,-14 18,-13 8,1 14,9 13,18 l -426,2491 c -1,8 -9,14 -18,13 -8,-1 -14,-9 -13,-18 l 426,-2491 z"
       id="path46"
       inkscape:connector-curvature="0"
       style="fill:#ffffff;fill-rule:nonzero" /><path
       class="fil1"
       d="m 7602,7243 c 2,-8 10,-14 18,-12 8,2 14,10 12,18 l -507,2285 c -2,8 -10,14 -18,12 -8,-2 -14,-10 -12,-18 l 507,-2285 z"
       id="path48"
       inkscape:connector-curvature="0"
       style="fill:#ffffff;fill-rule:nonzero" /><path
       class="fil1"
       d="m 7711,7340 c 2,-8 11,-13 19,-11 8,2 13,11 11,19 l -576,2106 c -2,8 -11,13 -19,11 -8,-2 -13,-11 -11,-19 l 576,-2106 z"
       id="path50"
       inkscape:connector-curvature="0"
       style="fill:#ffffff;fill-rule:nonzero" /><path
       class="fil1"
       d="m 7812,7438 c 3,-8 11,-13 19,-10 8,3 13,11 10,19 l -633,1931 c -3,8 -11,13 -19,10 -8,-3 -13,-11 -10,-19 l 633,-1931 z"
       id="path52"
       inkscape:connector-curvature="0"
       style="fill:#ffffff;fill-rule:nonzero" /><path
       class="fil1"
       d="m 7895,7527 c 3,-8 12,-12 20,-9 8,3 12,12 9,20 l -677,1777 c -3,8 -12,12 -20,9 -8,-3 -12,-12 -9,-20 l 677,-1777 z"
       id="path54"
       inkscape:connector-curvature="0"
       style="fill:#ffffff;fill-rule:nonzero" /><path
       class="fil1"
       d="m 7972,7620 c 3,-8 13,-11 20,-8 8,3 11,13 8,20 l -715,1627 c -3,8 -13,11 -20,8 -8,-3 -11,-13 -8,-20 l 715,-1627 z"
       id="path56"
       inkscape:connector-curvature="0"
       style="fill:#ffffff;fill-rule:nonzero" /><path
       class="fil1"
       d="m 8037,7705 c 4,-8 13,-11 21,-7 8,4 11,13 7,21 l -736,1483 c -4,8 -13,11 -21,7 -8,-4 -11,-13 -7,-21 l 736,-1483 z"
       id="path58"
       inkscape:connector-curvature="0"
       style="fill:#ffffff;fill-rule:nonzero" /><path
       class="fil1"
       d="m 8092,7788 c 4,-7 13,-10 21,-6 7,4 10,13 6,21 l -739,1338 c -4,7 -13,10 -21,6 -7,-4 -10,-13 -6,-21 l 739,-1338 z"
       id="path60"
       inkscape:connector-curvature="0"
       style="fill:#ffffff;fill-rule:nonzero" /><path
       class="fil1"
       d="m 8138,7864 c 4,-7 14,-10 21,-5 7,4 10,14 5,21 l -709,1182 c -4,7 -14,10 -21,5 -7,-4 -10,-14 -5,-21 l 709,-1182 z"
       id="path62"
       inkscape:connector-curvature="0"
       style="fill:#ffffff;fill-rule:nonzero" /><path
       class="fil1"
       d="m 8178,7937 c 5,-7 14,-9 21,-5 7,5 9,14 5,21 l -679,1046 c -5,7 -14,9 -21,5 -7,-5 -9,-14 -5,-21 l 679,-1046 z"
       id="path64"
       inkscape:connector-curvature="0"
       style="fill:#ffffff;fill-rule:nonzero" /><path
       class="fil1"
       d="m 8211,8007 c 5,-7 15,-9 21,-4 7,5 9,15 4,22 l -654,931 c -5,7 -15,9 -22,4 -7,-5 -9,-15 -4,-22 l 654,-931 z"
       id="path66"
       inkscape:connector-curvature="0"
       style="fill:#ffffff;fill-rule:nonzero" /><path
       class="fil1"
       d="m 8242,8082 c 5,-7 15,-8 22,-3 7,5 8,15 3,22 l -637,822 c -5,7 -15,8 -22,3 -7,-5 -8,-15 -3,-22 l 637,-822 z"
       id="path68"
       inkscape:connector-curvature="0"
       style="fill:#ffffff;fill-rule:nonzero" /><path
       class="fil1"
       d="m 8268,8157 c 6,-6 15,-7 22,-2 6,6 7,15 2,22 l -613,716 c -6,6 -15,7 -22,2 -6,-6 -7,-15 -2,-22 l 613,-716 z"
       id="path70"
       inkscape:connector-curvature="0"
       style="fill:#ffffff;fill-rule:nonzero" /><path
       class="fil1"
       d="m 8288,8224 c 6,-6 16,-7 22,-1 6,6 7,16 1,22 l -575,616 c -6,6 -16,7 -22,1 -6,-6 -7,-16 -1,-22 l 575,-616 z"
       id="path72"
       inkscape:connector-curvature="0"
       style="fill:#ffffff;fill-rule:nonzero" /><path
       class="fil1"
       d="m 8304,8290 c 6,-6 16,-6 22,0 6,6 6,16 0,22 l -531,521 c -6,6 -16,6 -22,0 -6,-6 -6,-16 0,-22 l 531,-521 z"
       id="path74"
       inkscape:connector-curvature="0"
       style="fill:#ffffff;fill-rule:nonzero" /><path
       class="fil1"
       d="m 8316,8360 c 6,-6 16,-5 22,1 6,6 5,16 -1,22 l -482,426 c -6,6 -16,5 -22,-1 -6,-6 -5,-16 1,-22 l 482,-426 z"
       id="path76"
       inkscape:connector-curvature="0"
       style="fill:#ffffff;fill-rule:nonzero" /><path
       class="fil1"
       d="m 8323,8413 c 7,-5 16,-5 22,2 5,7 5,16 -2,22 l -413,345 c -7,5 -16,5 -22,-2 -5,-7 -5,-16 2,-22 l 413,-345 z"
       id="path78"
       inkscape:connector-curvature="0"
       style="fill:#ffffff;fill-rule:nonzero" /><path
       class="fil1"
       d="m 8328,8467 c 7,-5 16,-4 22,3 5,7 4,16 -3,22 l -347,273 c -7,5 -16,4 -22,-3 -5,-7 -4,-16 3,-22 l 347,-273 z"
       id="path80"
       inkscape:connector-curvature="0"
       style="fill:#ffffff;fill-rule:nonzero" /><path
       class="fil1"
       d="m 8330,8527 c 7,-5 17,-3 22,4 5,7 3,17 -4,21 l -282,198 c -7,5 -17,3 -22,-4 -5,-7 -3,-17 4,-22 l 282,-198 z"
       id="path82"
       inkscape:connector-curvature="0"
       style="fill:#ffffff;fill-rule:nonzero" /><path
       class="fil1"
       d="m 8330,8576 c 7,-4 17,-2 21,5 4,7 2,17 -5,21 l -227,140 c -7,4 -17,2 -21,-5 -4,-7 -2,-17 5,-21 l 227,-140 z"
       id="path84"
       inkscape:connector-curvature="0"
       style="fill:#ffffff;fill-rule:nonzero" /><path
       class="fil1"
       d="m 8328,8627 c 8,-4 17,0 21,7 4,8 0,17 -7,21 l -170,82 c -8,4 -17,0 -21,-7 -4,-8 0,-17 7,-21 l 170,-82 z"
       id="path86"
       inkscape:connector-curvature="0"
       style="fill:#ffffff;fill-rule:nonzero" /><path
       class="fil1"
       d="m 8325,8672 c 8,-3 17,1 20,9 3,8 -1,17 -9,20 l -92,32 c -8,3 -17,-1 -20,-9 -3,-8 1,-17 9,-20 l 92,-32 z"
       id="path88"
       inkscape:connector-curvature="0"
       style="fill:#ffffff;fill-rule:nonzero" /><path
       class="fil1"
       d="m 12879,6430 c 9,0 15,8 15,16 0,9 -8,15 -16,15 L 4355,6067 c -9,0 -15,-8 -15,-16 0,-9 8,-15 16,-15 l 8523,394 z"
       id="path90"
       inkscape:connector-curvature="0"
       style="fill:#ffffff;fill-rule:nonzero" /><path
       class="fil1"
       d="m 12618,6821 c 8,1 15,8 14,17 -1,8 -8,15 -17,14 L 4733,6119 c -8,-1 -15,-8 -14,-17 1,-8 8,-15 17,-14 l 7882,733 z"
       id="path92"
       inkscape:connector-curvature="0"
       style="fill:#ffffff;fill-rule:nonzero" /><path
       class="fil1"
       d="m 12367,7166 c 8,1 14,9 13,17 -1,8 -9,14 -17,13 L 5150,6193 c -8,-1 -14,-9 -13,-17 1,-8 9,-14 17,-13 l 7213,1003 z"
       id="path94"
       inkscape:connector-curvature="0"
       style="fill:#ffffff;fill-rule:nonzero" /><path
       class="fil1"
       d="m 12117,7481 c 8,2 14,10 12,18 -2,8 -10,14 -18,12 L 5454,6261 c -8,-2 -14,-10 -12,-18 2,-8 10,-14 18,-12 l 6657,1250 z"
       id="path96"
       inkscape:connector-curvature="0"
       style="fill:#ffffff;fill-rule:nonzero" /><path
       class="fil1"
       d="m 11873,7763 c 8,2 13,10 11,19 -2,8 -10,13 -19,11 L 5766,6344 c -8,-2 -13,-10 -11,-19 2,-8 10,-13 19,-11 l 6099,1449 z"
       id="path98"
       inkscape:connector-curvature="0"
       style="fill:#ffffff;fill-rule:nonzero" /><path
       class="fil1"
       d="m 11641,8009 c 8,2 13,11 11,19 -2,8 -11,13 -19,11 L 6128,6458 c -8,-2 -13,-11 -11,-19 2,-8 11,-13 19,-11 l 5505,1581 z"
       id="path100"
       inkscape:connector-curvature="0"
       style="fill:#ffffff;fill-rule:nonzero" /><path
       class="fil1"
       d="m 11416,8229 c 8,3 12,12 10,20 -3,8 -12,12 -20,10 L 6439,6577 c -8,-3 -12,-12 -10,-20 3,-8 12,-12 20,-10 l 4967,1682 z"
       id="path102"
       inkscape:connector-curvature="0"
       style="fill:#ffffff;fill-rule:nonzero" /><path
       class="fil1"
       d="m 11196,8427 c 8,3 12,12 9,20 -3,8 -12,12 -20,9 L 6731,6706 c -8,-3 -12,-12 -9,-20 3,-8 12,-12 20,-9 l 4454,1750 z"
       id="path104"
       inkscape:connector-curvature="0"
       style="fill:#ffffff;fill-rule:nonzero" /><path
       class="fil1"
       d="m 10982,8602 c 8,4 11,13 8,20 -4,8 -13,11 -20,8 L 6955,6819 c -8,-4 -11,-13 -8,-20 4,-8 13,-11 20,-8 l 4015,1811 z"
       id="path106"
       inkscape:connector-curvature="0"
       style="fill:#ffffff;fill-rule:nonzero" /><path
       class="fil1"
       d="m 10792,8744 c 8,4 11,13 7,21 -4,8 -13,11 -21,7 L 7153,6934 c -8,-4 -11,-13 -7,-21 4,-8 13,-11 21,-7 l 3625,1838 z"
       id="path108"
       inkscape:connector-curvature="0"
       style="fill:#ffffff;fill-rule:nonzero" /><path
       class="fil1"
       d="m 10604,8874 c 7,4 10,14 6,21 -4,7 -14,10 -21,6 L 7333,7050 c -7,-4 -10,-14 -6,-21 4,-7 14,-10 21,-6 l 3256,1851 z"
       id="path110"
       inkscape:connector-curvature="0"
       style="fill:#ffffff;fill-rule:nonzero" /><path
       class="fil1"
       d="m 10434,8980 c 7,5 9,14 5,21 -5,7 -14,9 -21,5 L 7582,7236 c -7,-5 -9,-14 -5,-21 5,-7 14,-9 21,-5 l 2836,1770 z"
       id="path112"
       inkscape:connector-curvature="0"
       style="fill:#ffffff;fill-rule:nonzero" /><path
       class="fil1"
       d="m 10262,9077 c 7,5 9,14 4,21 -5,7 -14,9 -21,4 L 7739,7376 c -7,-5 -9,-14 -4,-21 5,-7 14,-9 21,-4 l 2506,1726 z"
       id="path114"
       inkscape:connector-curvature="0"
       style="fill:#ffffff;fill-rule:nonzero" /><path
       class="fil1"
       d="m 10100,9160 c 7,5 8,15 3,22 -5,7 -15,8 -22,3 L 7885,7529 c -7,-5 -8,-15 -3,-22 5,-7 15,-8 22,-3 l 2196,1656 z"
       id="path116"
       inkscape:connector-curvature="0"
       style="fill:#ffffff;fill-rule:nonzero" /><path
       class="fil1"
       d="m 9941,9231 c 7,5 7,15 2,22 -5,7 -15,7 -22,2 L 7977,7640 c -7,-5 -7,-15 -2,-22 5,-7 15,-7 22,-2 l 1944,1615 z"
       id="path118"
       inkscape:connector-curvature="0"
       style="fill:#ffffff;fill-rule:nonzero" /><path
       class="fil1"
       d="m 9791,9290 c 6,6 7,15 1,22 -6,6 -15,7 -22,1 L 8045,7731 c -6,-6 -7,-15 -1,-22 6,-6 15,-7 22,-1 l 1725,1582 z"
       id="path120"
       inkscape:connector-curvature="0"
       style="fill:#ffffff;fill-rule:nonzero" /><path
       class="fil1"
       d="m 9653,9336 c 6,6 6,16 0,22 -6,6 -16,6 -22,0 L 8095,7806 c -6,-6 -6,-16 0,-22 6,-6 16,-6 22,0 l 1536,1552 z"
       id="path122"
       inkscape:connector-curvature="0"
       style="fill:#ffffff;fill-rule:nonzero" /><path
       class="fil1"
       d="m 9518,9374 c 6,6 5,16 -1,22 -6,6 -16,5 -22,-1 L 8140,7881 c -6,-6 -5,-16 1,-22 6,-6 16,-5 22,1 l 1356,1514 z"
       id="path124"
       inkscape:connector-curvature="0"
       style="fill:#ffffff;fill-rule:nonzero" /><path
       class="fil1"
       d="m 9399,9402 c 5,7 4,16 -2,22 -7,5 -16,4 -22,-2 L 8174,7947 c -5,-7 -4,-16 2,-22 7,-5 16,-4 22,2 l 1201,1475 z"
       id="path126"
       inkscape:connector-curvature="0"
       style="fill:#ffffff;fill-rule:nonzero" /><path
       class="fil1"
       d="m 9280,9422 c 5,7 4,17 -3,22 -7,5 -17,4 -22,-3 L 8203,8008 c -5,-7 -4,-17 3,-22 7,-5 17,-4 22,3 l 1052,1433 z"
       id="path128"
       inkscape:connector-curvature="0"
       style="fill:#ffffff;fill-rule:nonzero" /><path
       class="fil1"
       d="m 9173,9435 c 5,7 3,17 -4,21 -7,5 -17,3 -21,-4 L 8231,8073 c -5,-7 -3,-17 4,-21 7,-5 17,-3 21,4 l 917,1379 z"
       id="path130"
       inkscape:connector-curvature="0"
       style="fill:#ffffff;fill-rule:nonzero" /><path
       class="fil1"
       d="m 9074,9442 c 4,7 2,17 -5,21 -7,4 -17,2 -21,-5 L 8259,8149 c -4,-7 -2,-17 5,-21 7,-4 17,-2 21,5 l 789,1309 z"
       id="path132"
       inkscape:connector-curvature="0"
       style="fill:#ffffff;fill-rule:nonzero" /><path
       class="fil1"
       d="m 8985,9444 c 4,7 1,17 -6,21 -7,4 -17,1 -21,-6 L 8289,8254 c -4,-7 -1,-17 6,-21 7,-4 17,-1 21,6 l 669,1205 z"
       id="path134"
       inkscape:connector-curvature="0"
       style="fill:#ffffff;fill-rule:nonzero" /><path
       class="fil1"
       d="m 8902,9441 c 4,8 1,17 -7,21 -8,4 -17,1 -21,-7 L 8307,8344 c -4,-8 -1,-17 7,-21 8,-4 17,-1 21,7 l 567,1111 z"
       id="path136"
       inkscape:connector-curvature="0"
       style="fill:#ffffff;fill-rule:nonzero" /><path
       class="fil1"
       d="m 8825,9435 c 4,8 0,17 -8,20 -8,4 -17,0 -20,-8 L 8318,8415 c -4,-8 0,-17 8,-20 8,-4 17,0 20,8 l 479,1032 z"
       id="path138"
       inkscape:connector-curvature="0"
       style="fill:#ffffff;fill-rule:nonzero" /><path
       class="fil1"
       d="m 8744,9425 c 3,8 -1,17 -8,20 -8,3 -17,-1 -20,-8 l -393,-962 c -3,-8 1,-17 8,-20 8,-3 17,1 20,8 l 393,962 z"
       id="path140"
       inkscape:connector-curvature="0"
       style="fill:#ffffff;fill-rule:nonzero" /><path
       class="fil1"
       d="m 8667,9410 c 3,8 -1,17 -9,20 -8,3 -17,-1 -20,-9 l -314,-889 c -3,-8 1,-17 9,-20 8,-3 17,1 20,9 l 314,889 z"
       id="path142"
       inkscape:connector-curvature="0"
       style="fill:#ffffff;fill-rule:nonzero" /><path
       class="fil1"
       d="m 8598,9394 c 2,8 -2,17 -10,19 -8,2 -17,-2 -19,-10 l -246,-806 c -2,-8 2,-17 10,-19 8,-2 17,2 19,10 l 246,806 z"
       id="path144"
       inkscape:connector-curvature="0"
       style="fill:#ffffff;fill-rule:nonzero" /><path
       class="fil1"
       d="m 8533,9374 c 2,8 -3,17 -11,19 -8,2 -17,-3 -19,-11 l -185,-720 c -2,-8 3,-17 11,-19 8,-2 17,3 19,11 l 185,720 z"
       id="path146"
       inkscape:connector-curvature="0"
       style="fill:#ffffff;fill-rule:nonzero" /><path
       class="fil1"
       d="m 8467,9351 c 2,8 -4,16 -12,18 -8,2 -16,-4 -18,-12 l -127,-631 c -2,-8 4,-16 12,-18 8,-2 16,4 18,12 l 127,631 z"
       id="path148"
       inkscape:connector-curvature="0"
       style="fill:#ffffff;fill-rule:nonzero" /><path
       class="fil1"
       d="m 8417,9330 c 1,8 -4,16 -13,18 -8,1 -16,-4 -18,-13 l -92,-531 c -1,-8 4,-16 13,-18 8,-1 16,4 18,13 l 92,531 z"
       id="path150"
       inkscape:connector-curvature="0"
       style="fill:#ffffff;fill-rule:nonzero" /><path
       class="fil1"
       d="m 8368,9307 c 1,8 -5,16 -13,17 -8,1 -16,-5 -17,-13 l -62,-437 c -1,-8 5,-16 13,-17 8,-1 16,5 17,13 l 62,437 z"
       id="path152"
       inkscape:connector-curvature="0"
       style="fill:#ffffff;fill-rule:nonzero" /><path
       class="fil1"
       d="m 8315,9279 c 1,8 -6,16 -14,17 -8,1 -16,-6 -17,-14 l -31,-343 c -1,-8 6,-16 14,-17 8,-1 16,6 17,14 l 31,343 z"
       id="path154"
       inkscape:connector-curvature="0"
       style="fill:#ffffff;fill-rule:nonzero" /><path
       class="fil1"
       d="m 8273,9254 c 0,9 -6,16 -15,16 -9,0 -16,-6 -16,-15 l -7,-267 c 0,-9 6,-16 15,-16 9,0 16,6 16,15 l 7,267 z"
       id="path156"
       inkscape:connector-curvature="0"
       style="fill:#ffffff;fill-rule:nonzero" /><path
       class="fil1"
       d="m 8230,9227 c -1,9 -8,15 -16,14 -9,-1 -15,-8 -14,-16 l 14,-188 c 1,-9 8,-15 16,-14 9,1 15,8 14,16 l -14,188 z"
       id="path158"
       inkscape:connector-curvature="0"
       style="fill:#ffffff;fill-rule:nonzero" /><path
       class="fil1"
       d="m 8192,9201 c -2,8 -10,14 -18,12 -8,-2 -14,-10 -12,-18 l 18,-95 c 2,-8 10,-14 18,-12 8,2 14,10 12,18 l -18,95 z"
       id="path160"
       inkscape:connector-curvature="0"
       style="fill:#ffffff;fill-rule:nonzero" /><path
       class="fil1"
       d="m 7857,14266 c -5,7 -14,9 -21,5 -7,-5 -9,-14 -5,-21 l 4603,-7185 c 5,-7 14,-9 21,-5 7,5 9,14 5,21 l -4603,7185 z"
       id="path162"
       inkscape:connector-curvature="0"
       style="fill:#ffffff;fill-rule:nonzero" /><path
       class="fil1"
       d="m 7648,13845 c -5,7 -15,9 -21,4 -7,-5 -9,-15 -4,-21 l 4576,-6459 c 5,-7 15,-9 21,-4 7,5 9,15 4,21 l -4576,6459 z"
       id="path164"
       inkscape:connector-curvature="0"
       style="fill:#ffffff;fill-rule:nonzero" /><path
       class="fil1"
       d="m 7475,13456 c -5,7 -15,8 -22,3 -7,-5 -8,-15 -3,-22 l 4475,-5745 c 5,-7 15,-8 22,-3 7,5 8,15 3,22 l -4475,5745 z"
       id="path166"
       inkscape:connector-curvature="0"
       style="fill:#ffffff;fill-rule:nonzero" /><path
       class="fil1"
       d="m 7328,13082 c -6,6 -15,7 -22,2 -6,-6 -7,-15 -2,-22 l 4411,-5140 c 6,-6 15,-7 22,-2 6,6 7,15 2,22 l -4411,5140 z"
       id="path168"
       inkscape:connector-curvature="0"
       style="fill:#ffffff;fill-rule:nonzero" /><path
       class="fil1"
       d="m 7206,12729 c -6,6 -16,7 -22,1 -6,-6 -7,-16 -1,-22 l 4304,-4558 c 6,-6 16,-7 22,-1 6,6 7,16 1,22 l -4304,4558 z"
       id="path170"
       inkscape:connector-curvature="0"
       style="fill:#ffffff;fill-rule:nonzero" /><path
       class="fil1"
       d="m 7108,12405 c -6,6 -16,6 -22,0 -6,-6 -6,-16 0,-22 l 4121,-3977 c 6,-6 16,-6 22,0 6,6 6,16 0,22 l -4121,3977 z"
       id="path172"
       inkscape:connector-curvature="0"
       style="fill:#ffffff;fill-rule:nonzero" /><path
       class="fil1"
       d="m 7030,12100 c -6,6 -16,5 -22,-1 -6,-6 -5,-16 1,-22 l 3940,-3460 c 6,-6 16,-5 22,1 6,6 5,16 -1,22 l -3940,3460 z"
       id="path174"
       inkscape:connector-curvature="0"
       style="fill:#ffffff;fill-rule:nonzero" /><path
       class="fil1"
       d="m 6969,11811 c -7,5 -16,4 -22,-2 -5,-7 -4,-16 2,-22 l 3743,-2982 c 7,-5 16,-4 22,2 5,7 4,16 -2,22 l -3743,2982 z"
       id="path176"
       inkscape:connector-curvature="0"
       style="fill:#ffffff;fill-rule:nonzero" /><path
       class="fil1"
       d="m 6924,11538 c -7,5 -17,3 -22,-4 -5,-7 -3,-17 4,-22 l 3576,-2572 c 7,-5 17,-3 22,4 5,7 3,17 -4,22 l -3576,2572 z"
       id="path178"
       inkscape:connector-curvature="0"
       style="fill:#ffffff;fill-rule:nonzero" /><path
       class="fil1"
       d="m 6896,11303 c -7,5 -17,3 -21,-5 -5,-7 -3,-17 5,-21 l 3405,-2221 c 7,-5 17,-3 21,5 5,7 3,17 -5,21 l -3405,2221 z"
       id="path180"
       inkscape:connector-curvature="0"
       style="fill:#ffffff;fill-rule:nonzero" /><path
       class="fil1"
       d="m 6878,11074 c -7,4 -17,2 -21,-6 -4,-7 -2,-17 6,-21 l 3232,-1894 c 7,-4 17,-2 21,5 4,7 2,17 -6,21 l -3232,1894 z"
       id="path182"
       inkscape:connector-curvature="0"
       style="fill:#ffffff;fill-rule:nonzero" /><path
       class="fil1"
       d="m 6871,10874 c -8,4 -17,1 -21,-6 -4,-8 -1,-17 6,-21 L 9807,9276 c 8,-4 17,-1 21,6 4,8 1,17 -6,21 l -2951,1571 z"
       id="path184"
       inkscape:connector-curvature="0"
       style="fill:#ffffff;fill-rule:nonzero" /><path
       class="fil1"
       d="m 6873,10677 c -8,4 -17,0 -21,-7 -4,-8 0,-17 7,-21 L 9607,9342 c 8,-4 17,0 21,7 4,8 0,17 -7,21 l -2748,1307 z"
       id="path186"
       inkscape:connector-curvature="0"
       style="fill:#ffffff;fill-rule:nonzero" /><path
       class="fil1"
       d="m 6883,10495 c -8,3 -17,0 -20,-8 -3,-8 0,-17 8,-20 L 9403,9393 c 8,-3 17,0 20,8 3,8 0,17 -8,20 l -2532,1074 z"
       id="path188"
       inkscape:connector-curvature="0"
       style="fill:#ffffff;fill-rule:nonzero" /><path
       class="fil1"
       d="m 6900,10322 c -8,3 -17,-1 -20,-9 -3,-8 1,-17 9,-20 l 2370,-876 c 8,-3 17,1 20,9 3,8 -1,17 -9,20 l -2370,876 z"
       id="path190"
       inkscape:connector-curvature="0"
       style="fill:#ffffff;fill-rule:nonzero" /><path
       class="fil1"
       d="m 6924,10163 c -8,3 -17,-2 -19,-10 -3,-8 2,-17 10,-19 l 2233,-703 c 8,-3 17,2 19,10 3,8 -2,17 -10,19 l -2233,703 z"
       id="path192"
       inkscape:connector-curvature="0"
       style="fill:#ffffff;fill-rule:nonzero" /><path
       class="fil1"
       d="m 6953,10020 c -8,2 -17,-3 -19,-11 -2,-8 3,-17 11,-19 l 2112,-554 c 8,-2 17,3 19,11 2,8 -3,17 -11,19 l -2112,554 z"
       id="path194"
       inkscape:connector-curvature="0"
       style="fill:#ffffff;fill-rule:nonzero" /><path
       class="fil1"
       d="m 6987,9884 c -8,2 -17,-4 -18,-12 -2,-8 4,-17 12,-18 l 1989,-417 c 8,-2 17,4 18,12 2,8 -4,17 -12,18 l -1989,417 z"
       id="path196"
       inkscape:connector-curvature="0"
       style="fill:#ffffff;fill-rule:nonzero" /><path
       class="fil1"
       d="m 7023,9767 c -8,1 -16,-4 -18,-13 -1,-8 4,-16 13,-18 l 1878,-303 c 8,-1 16,4 18,13 1,8 -4,16 -13,18 l -1878,303 z"
       id="path198"
       inkscape:connector-curvature="0"
       style="fill:#ffffff;fill-rule:nonzero" /><path
       class="fil1"
       d="m 7065,9653 c -8,1 -16,-5 -17,-14 -1,-8 5,-16 14,-17 l 1767,-194 c 8,-1 16,5 17,14 1,8 -5,16 -14,17 l -1767,194 z"
       id="path200"
       inkscape:connector-curvature="0"
       style="fill:#ffffff;fill-rule:nonzero" /><path
       class="fil1"
       d="m 7107,9555 c -9,1 -16,-6 -16,-14 -1,-9 6,-16 14,-16 l 1652,-104 c 9,-1 16,6 16,14 1,9 -6,16 -14,16 l -1652,104 z"
       id="path202"
       inkscape:connector-curvature="0"
       style="fill:#ffffff;fill-rule:nonzero" /><path
       class="fil1"
       d="m 7150,9466 c -9,0 -16,-7 -16,-15 0,-9 7,-16 15,-16 l 1528,-29 c 9,0 16,7 16,15 0,9 -7,16 -15,16 l -1528,29 z"
       id="path204"
       inkscape:connector-curvature="0"
       style="fill:#ffffff;fill-rule:nonzero" /><path
       class="fil1"
       d="m 7194,9388 c -9,0 -15,-7 -15,-16 0,-9 7,-15 16,-15 l 1378,23 c 9,0 15,7 15,16 0,9 -7,15 -16,15 l -1378,-23 z"
       id="path206"
       inkscape:connector-curvature="0"
       style="fill:#ffffff;fill-rule:nonzero" /><path
       class="fil1"
       d="m 7237,9317 c -9,0 -15,-8 -15,-16 0,-9 8,-15 16,-15 l 1246,64 c 9,0 15,8 15,16 0,9 -8,15 -16,15 l -1246,-64 z"
       id="path208"
       inkscape:connector-curvature="0"
       style="fill:#ffffff;fill-rule:nonzero" /><path
       class="fil1"
       d="m 7281,9253 c -8,-1 -15,-8 -14,-17 1,-8 8,-15 17,-14 l 1134,101 c 8,1 15,8 14,17 -1,8 -8,15 -17,14 L 7281,9253 Z"
       id="path210"
       inkscape:connector-curvature="0"
       style="fill:#ffffff;fill-rule:nonzero" /><path
       class="fil1"
       d="m 7331,9189 c -8,-1 -14,-9 -13,-17 1,-8 9,-14 17,-13 l 1030,140 c 8,1 14,9 13,17 -1,8 -9,14 -17,13 L 7331,9189 Z"
       id="path212"
       inkscape:connector-curvature="0"
       style="fill:#ffffff;fill-rule:nonzero" /><path
       class="fil1"
       d="m 7382,9129 c -8,-2 -14,-10 -12,-18 2,-8 10,-14 18,-12 l 927,173 c 8,2 14,10 12,18 -2,8 -10,14 -18,12 l -927,-173 z"
       id="path214"
       inkscape:connector-curvature="0"
       style="fill:#ffffff;fill-rule:nonzero" /><path
       class="fil1"
       d="m 7430,9078 c -8,-2 -13,-10 -12,-18 2,-8 10,-13 18,-12 l 821,190 c 8,2 13,10 12,18 -2,8 -10,13 -18,12 l -821,-190 z"
       id="path216"
       inkscape:connector-curvature="0"
       style="fill:#ffffff;fill-rule:nonzero" /><path
       class="fil1"
       d="m 7480,9031 c -8,-2 -13,-11 -11,-19 2,-8 11,-13 19,-11 l 716,200 c 8,2 13,11 11,19 -2,8 -11,13 -19,11 l -716,-200 z"
       id="path218"
       inkscape:connector-curvature="0"
       style="fill:#ffffff;fill-rule:nonzero" /><path
       class="fil1"
       d="m 7533,8985 c -8,-3 -12,-11 -10,-20 3,-8 11,-12 20,-10 l 610,205 c 8,3 12,11 10,20 -3,8 -11,12 -20,10 l -610,-205 z"
       id="path220"
       inkscape:connector-curvature="0"
       style="fill:#ffffff;fill-rule:nonzero" /><path
       class="fil1"
       d="m 7577,8953 c -8,-3 -12,-12 -9,-20 3,-8 12,-12 20,-9 l 506,185 c 8,3 12,12 9,20 -3,8 -12,12 -20,9 l -506,-185 z"
       id="path222"
       inkscape:connector-curvature="0"
       style="fill:#ffffff;fill-rule:nonzero" /><path
       class="fil1"
       d="m 7621,8922 c -8,-3 -12,-12 -9,-20 3,-8 12,-12 20,-9 l 410,165 c 8,3 12,12 9,20 -3,8 -12,12 -20,9 l -410,-165 z"
       id="path224"
       inkscape:connector-curvature="0"
       style="fill:#ffffff;fill-rule:nonzero" /><path
       class="fil1"
       d="m 7671,8890 c -8,-4 -11,-13 -8,-20 4,-8 13,-11 20,-8 l 313,145 c 8,4 11,13 8,20 -4,8 -13,11 -20,8 l -313,-145 z"
       id="path226"
       inkscape:connector-curvature="0"
       style="fill:#ffffff;fill-rule:nonzero" /><path
       class="fil1"
       d="m 7715,8865 c -8,-4 -10,-13 -6,-21 4,-8 13,-10 21,-6 l 235,127 c 8,4 10,13 6,21 -4,8 -13,10 -21,6 l -235,-127 z"
       id="path228"
       inkscape:connector-curvature="0"
       style="fill:#ffffff;fill-rule:nonzero" /><path
       class="fil1"
       d="m 7759,8842 c -7,-5 -9,-14 -4,-21 5,-7 14,-9 21,-4 l 156,106 c 7,5 9,14 4,21 -5,7 -14,9 -21,4 l -156,-106 z"
       id="path230"
       inkscape:connector-curvature="0"
       style="fill:#ffffff;fill-rule:nonzero" /><path
       class="fil1"
       d="m 7800,8822 c -6,-6 -7,-15 -2,-22 6,-6 15,-7 22,-2 l 74,63 c 6,6 7,15 2,22 -6,6 -15,7 -22,2 l -74,-63 z"
       id="path232"
       inkscape:connector-curvature="0"
       style="fill:#ffffff;fill-rule:nonzero" /><path
       class="fil1"
       d="m 8119,14728 c 4,7 2,17 -6,21 -7,4 -17,2 -21,-6 l -2528,-4378 0,0 -2528,-4378 c -4,-7 -2,-17 6,-21 7,-4 17,-2 21,6 l 2528,4378 0,0 0,0 2528,4378 z"
       id="path234"
       inkscape:connector-curvature="0"
       style="fill:#ffffff;fill-rule:nonzero" /><path
       class="fil1"
       d="m 3050,5995 c -9,0 -15,-7 -15,-15 0,-9 7,-15 15,-15 l 5055,0 5055,0 c 9,0 15,7 15,15 0,9 -7,15 -15,15 l -5055,0 -5055,0 z"
       id="path236"
       inkscape:connector-curvature="0"
       style="fill:#ffffff;fill-rule:nonzero" /><path
       class="fil1"
       d="m 13148,5972 c 4,-7 14,-10 21,-6 7,4 10,14 6,21 l -2528,4378 c 0,0 0,1 -1,1 l -2527,4377 c -4,7 -14,10 -21,6 -7,-4 -10,-14 -6,-21 l 2527,-4377 c 0,0 0,-1 0,-1 l 2528,-4378 z"
       id="path238"
       inkscape:connector-curvature="0"
       style="fill:#ffffff;fill-rule:nonzero" /><path
       class="fil1"
       d="m 13148,5972 c 4,-7 14,-10 21,-6 7,4 10,14 6,21 -911,1578 -1955,2599 -2890,3103 -394,213 -769,334 -1107,367 -339,33 -641,-23 -887,-165 0,0 -1,0 -1,-1 -191,-111 -349,-273 -464,-486 -4,-8 -1,-17 6,-21 8,-4 17,-1 21,6 112,208 266,367 452,474 0,0 1,0 1,0 240,139 536,193 868,161 334,-32 705,-153 1095,-363 930,-502 1970,-1519 2878,-3092 z"
       id="path240"
       inkscape:connector-curvature="0"
       style="fill:#ffffff;fill-rule:nonzero" /><path
       class="fil1"
       d="m 3050,5995 c -9,0 -15,-7 -15,-15 0,-9 7,-15 15,-15 1822,0 3228,394 4133,951 381,235 674,499 871,775 198,277 300,566 300,850 0,221 -62,439 -189,646 -4,7 -14,9 -21,5 -7,-4 -9,-14 -5,-21 124,-201 185,-414 185,-630 0,-278 -100,-561 -294,-832 -195,-273 -484,-534 -862,-767 -900,-555 -2301,-947 -4117,-947 z"
       id="path242"
       inkscape:connector-curvature="0"
       style="fill:#ffffff;fill-rule:nonzero" /><path
       class="fil1"
       d="m 8119,14728 c 4,7 2,17 -6,21 -7,4 -17,2 -21,-6 -911,-1578 -1273,-2993 -1243,-4055 13,-448 95,-833 236,-1142 141,-310 340,-543 586,-685 l 0,0 c 192,-111 412,-166 654,-159 9,0 15,7 15,16 0,9 -7,15 -16,15 -236,-7 -451,47 -638,155 l 0,0 0,0 c -240,139 -435,367 -574,671 -139,305 -220,687 -233,1130 -30,1057 330,2466 1238,4038 z"
       id="path244"
       inkscape:connector-curvature="0"
       style="fill:#ffffff;fill-rule:nonzero" /><path
       class="fil2 str0"
       d="m 8269,8937 c 8,-22 15,-43 21,-65 7,-23 13,-47 19,-70 6,-26 11,-52 15,-78 0,-2 1,-3 1,-5 -29,-1 -58,-1 -87,0 -25,1 -49,2 -74,5 -18,2 -36,4 -54,6 -18,2 -36,5 -54,8 -23,4 -45,9 -67,14 -24,6 -47,12 -70,19 -26,8 -51,16 -76,26 -2,1 -3,1 -5,2 14,26 29,51 44,75 13,21 27,42 41,61 10,15 21,29 32,44 11,14 22,28 34,42 15,18 30,35 46,51 17,18 34,35 52,51 20,18 40,36 60,52 1,1 3,2 4,3 15,-25 30,-50 43,-76 12,-22 23,-44 33,-66 8,-16 15,-33 22,-50 7,-17 13,-34 20,-51 z"
       id="path246"
       inkscape:connector-curvature="0"
       style="fill:#ffffff;stroke:#ffffff;stroke-width:20" /><path
       class="fil1"
       d="m 6290,13323 c 0,30 -15,45 -45,45 -22,0 -54,-2 -98,-6 -44,-4 -77,-6 -98,-6 -22,0 -55,2 -99,6 -44,4 -77,6 -99,6 -30,0 -45,-20 -45,-60 0,-153 4,-383 14,-689 10,-306 14,-536 14,-689 0,-23 -4,-34 -14,-34 -11,0 -19,7 -25,20 -62,131 -207,483 -436,1054 -37,110 -91,247 -160,411 -9,14 -52,20 -131,20 -114,0 -177,-10 -189,-31 -41,-97 -99,-234 -176,-410 -100,-238 -254,-594 -462,-1066 -4,-9 -11,-17 -23,-25 -10,7 -14,20 -14,39 0,156 2,389 8,700 6,311 8,544 8,700 0,39 -15,60 -45,60 -21,0 -52,-2 -94,-6 -42,-4 -73,-6 -94,-6 -22,0 -54,2 -97,6 -43,4 -75,6 -97,6 -30,0 -45,-12 -45,-35 0,-134 6,-334 19,-601 12,-267 19,-468 19,-601 0,-139 -6,-347 -19,-625 -12,-278 -19,-486 -19,-624 0,-23 14,-36 41,-39 164,-22 287,-33 370,-33 12,0 29,25 51,74 292,641 544,1214 754,1717 49,118 79,177 89,177 12,0 38,-48 78,-144 165,-390 393,-969 684,-1737 19,-48 39,-72 62,-72 41,0 102,2 183,7 81,5 143,7 183,7 30,0 44,15 44,44 0,138 -4,347 -13,624 -9,278 -13,486 -13,624 0,133 5,331 15,597 10,265 15,463 15,595 z m 2136,-1591 c 0,5 -2,15 -6,33 -48,276 -72,513 -72,713 0,12 15,283 46,811 l 2,25 c 1,35 -15,52 -48,52 -33,0 -83,4 -151,12 -67,8 -117,12 -149,12 -23,0 -40,-42 -52,-126 -12,-84 -23,-126 -35,-126 -7,0 -39,23 -97,70 -71,57 -138,101 -199,131 -96,48 -191,72 -286,72 -234,0 -431,-93 -592,-280 -152,-178 -228,-386 -228,-624 0,-267 77,-489 230,-663 160,-182 371,-273 633,-273 185,0 346,64 483,192 20,24 52,59 96,105 3,4 7,6 10,6 7,0 18,-38 31,-114 14,-76 30,-114 51,-114 33,0 94,9 183,27 99,22 149,41 149,58 z m -463,756 c 0,-148 -44,-275 -132,-381 -93,-114 -211,-172 -356,-172 -144,0 -265,57 -362,170 -93,109 -139,236 -139,383 0,146 46,272 139,379 97,112 217,168 362,168 141,0 259,-57 354,-172 89,-107 134,-232 134,-376 z m 1763,550 c 0,27 -2,62 -7,108 -6,56 -9,93 -11,109 -1,22 -3,35 -6,39 -5,9 -16,17 -34,25 -99,48 -254,71 -465,71 -280,0 -420,-128 -421,-383 0,-102 2,-256 6,-462 4,-205 6,-360 6,-462 0,-49 -25,-76 -74,-80 -45,0 -89,-1 -132,-2 -25,-6 -38,-56 -38,-149 0,-35 2,-72 7,-110 4,-29 23,-46 58,-52 30,0 59,-1 88,-2 56,-2 83,-27 83,-74 0,-48 -1,-122 -4,-221 -2,-99 -4,-173 -4,-222 0,-88 17,-132 51,-132 10,0 123,19 338,56 28,4 41,17 41,39 0,54 -4,133 -13,239 -9,106 -13,186 -13,239 0,35 17,52 49,52 l 436,0 c 20,0 31,7 31,22 0,14 -2,38 -7,70 -4,31 -6,56 -6,71 0,18 1,46 2,83 1,37 2,65 2,83 0,23 -17,35 -51,35 -49,0 -122,-3 -220,-9 -97,-6 -170,-9 -219,-9 -9,0 -17,35 -22,103 -2,86 -4,205 -4,360 l 0,270 c 0,104 10,176 29,217 28,63 88,94 178,94 37,0 91,-8 164,-24 72,-16 125,-24 160,-24 14,0 22,10 22,32 z m 1836,267 c 0,45 -13,67 -38,67 -37,0 -94,-1 -170,-2 -76,-1 -133,-2 -170,-2 -30,0 -46,-20 -46,-60 0,-58 2,-145 7,-262 4,-117 6,-205 6,-264 0,-56 -2,-139 -6,-252 -4,-112 -7,-197 -7,-254 0,-217 -102,-326 -307,-326 -67,0 -153,33 -260,99 -114,71 -172,136 -172,196 l 0,1074 c 0,35 -12,52 -38,52 -38,0 -93,-1 -168,-2 -75,-1 -130,-2 -168,-2 -28,0 -41,-16 -41,-49 l 0,-873 c 0,-142 -8,-445 -24,-907 -2,-144 -13,-356 -31,-637 -2,-14 -4,-24 -4,-29 0,-20 7,-33 22,-38 20,-7 89,-10 204,-10 25,0 64,-4 114,-14 51,-9 88,-13 110,-13 15,0 23,12 23,35 0,113 -4,284 -13,511 -9,227 -12,398 -12,511 0,28 4,43 14,44 62,-52 141,-115 238,-189 118,-74 243,-111 374,-111 226,0 382,67 468,202 61,99 92,255 92,470 0,37 -1,95 -3,173 -2,78 -2,135 -2,172 0,77 1,193 4,346 2,153 4,267 4,343 z m 11138,-1577 c 0,27 -14,86 -41,177 -28,92 -48,138 -58,138 -54,-24 -109,-48 -164,-72 -55,-24 -115,-36 -180,-36 -149,0 -272,55 -371,164 -99,110 -148,239 -148,388 0,147 49,274 148,381 101,110 225,166 371,166 81,0 160,-20 239,-59 78,-39 113,-59 103,-59 15,0 33,51 52,152 18,91 27,154 27,189 0,37 -70,73 -212,110 -118,30 -205,45 -262,45 -249,0 -458,-93 -629,-278 -168,-181 -252,-397 -252,-647 0,-255 82,-473 246,-651 169,-183 379,-275 631,-275 169,0 324,43 463,128 24,15 36,27 36,38 z m -9646,334 -2,16 c -10,43 -25,105 -43,187 -4,39 -12,98 -23,174 -2,10 -37,18 -103,22 -46,2 -110,2 -195,0 -108,-2 -159,-4 -152,-4 -74,0 -185,7 -332,20 -147,14 -257,20 -330,20 -33,0 -49,-20 -49,-60 0,-56 35,-171 105,-346 6,-17 23,-25 51,-25 42,0 104,2 186,5 81,3 144,4 186,4 73,0 185,-7 332,-22 148,-15 259,-22 333,-22 26,0 39,10 38,31 z m 2514,24 c 0,339 -96,631 -289,879 -209,268 -478,403 -806,403 -63,0 -157,-2 -283,-7 -126,-5 -220,-7 -283,-7 -57,0 -142,2 -255,7 -114,5 -199,7 -256,7 -30,0 -45,-15 -45,-45 0,-131 5,-330 15,-595 10,-265 15,-464 15,-597 0,-139 -5,-350 -15,-631 -10,-281 -15,-491 -15,-631 0,-25 15,-38 47,-38 45,0 112,1 200,2 89,1 155,2 200,2 41,0 104,-1 188,-2 85,-1 148,-2 192,-2 418,0 730,79 935,237 147,113 261,265 342,457 76,178 114,365 114,560 z m -444,0 c 0,-260 -74,-473 -222,-637 -154,-170 -360,-255 -618,-255 -213,0 -299,-1 -258,-4 -141,7 -212,33 -212,78 0,93 -2,232 -6,417 -4,185 -6,324 -6,417 0,92 2,230 6,413 4,183 6,320 6,412 0,46 73,72 217,80 -20,-1 68,-2 263,-2 138,0 249,-14 330,-43 101,-36 193,-103 273,-201 151,-183 226,-408 226,-674 z m 1767,-417 c 0,133 -9,254 -27,362 -4,28 -16,41 -36,41 -25,0 -64,-2 -115,-8 -52,-6 -91,-8 -117,-8 -152,0 -250,43 -292,128 -25,52 -38,160 -38,323 l 0,199 c 0,67 2,170 7,307 5,137 7,239 7,307 0,32 -14,49 -41,49 -37,0 -93,-1 -168,-2 -75,-1 -132,-2 -169,-2 -27,0 -41,-15 -41,-45 0,-98 2,-245 5,-441 3,-196 4,-344 4,-443 0,-297 -27,-537 -81,-718 -2,-10 -4,-17 -4,-22 0,-15 8,-25 23,-31 44,-5 106,-12 186,-22 129,-25 189,-37 179,-37 19,0 32,36 38,107 6,72 17,108 33,108 2,0 6,-1 9,-4 49,-31 99,-63 149,-95 54,-33 110,-57 167,-73 47,-14 107,-22 181,-22 94,0 141,13 141,38 z m 670,-464 c 0,148 -83,222 -248,222 -168,0 -252,-74 -252,-222 0,-66 26,-121 78,-164 48,-41 106,-62 174,-62 67,0 126,21 175,63 49,43 73,97 73,163 z m -15,490 c 0,93 -6,233 -17,420 -11,188 -17,328 -17,422 0,88 2,220 6,395 4,175 6,307 6,393 0,25 -11,38 -33,38 l -353,0 c -25,0 -38,-25 -38,-74 0,-83 2,-209 7,-375 4,-167 6,-292 6,-377 0,-94 -7,-235 -20,-423 -14,-188 -20,-329 -20,-423 0,-20 12,-31 38,-31 22,0 55,3 100,9 45,6 79,9 102,9 23,0 57,-3 102,-9 45,-6 79,-9 102,-9 20,0 31,12 31,35 z m 815,-835 -2,23 c -26,448 -39,833 -39,1155 0,143 2,358 7,644 5,286 7,500 7,643 0,28 -9,41 -28,41 l -346,0 c -22,0 -33,-14 -33,-41 0,-143 1,-357 4,-643 2,-286 4,-501 4,-644 0,-130 -6,-326 -19,-587 -12,-261 -19,-455 -19,-584 0,-24 12,-36 38,-36 22,0 54,2 97,6 43,4 75,6 98,6 22,0 56,-2 101,-6 44,-4 77,-6 99,-6 22,0 32,10 31,29 z m 815,0 -2,23 c -26,448 -39,833 -39,1155 0,143 2,358 7,644 5,286 7,500 7,643 0,28 -9,41 -28,41 l -346,0 c -22,0 -33,-14 -33,-41 0,-143 1,-357 4,-643 2,-286 4,-501 4,-644 0,-130 -6,-326 -19,-587 -12,-261 -19,-455 -19,-584 0,-24 12,-36 38,-36 22,0 54,2 98,6 43,4 75,6 97,6 22,0 56,-2 101,-6 44,-4 77,-6 99,-6 22,0 32,10 31,29 z m 1204,1949 c 0,180 -72,323 -215,432 -131,99 -289,148 -477,148 -72,0 -114,-2 -123,-6 -20,-9 -31,-39 -31,-88 0,-27 -3,-66 -10,-119 -7,-53 -10,-92 -10,-117 0,-15 11,-26 33,-31 15,-4 38,-4 67,0 38,4 56,6 54,6 228,0 342,-70 342,-210 0,-66 -50,-126 -149,-182 -162,-89 -255,-144 -279,-165 -99,-85 -149,-197 -149,-336 0,-181 68,-321 205,-423 123,-91 279,-136 468,-136 17,0 29,8 37,23 8,16 23,65 46,147 22,82 33,131 33,149 0,13 -12,22 -35,25 -77,10 -155,21 -233,30 -93,25 -139,76 -139,151 0,54 49,109 146,165 144,80 235,139 273,175 98,94 147,214 147,361 z m 751,292 c 0,80 -27,149 -80,209 -54,60 -120,89 -198,89 -78,0 -144,-31 -197,-93 -51,-58 -76,-126 -76,-206 0,-81 26,-151 78,-208 52,-57 117,-86 196,-86 80,0 146,29 199,87 53,58 80,126 80,207 z m 3431,-616 c 0,252 -83,467 -247,645 -169,185 -378,276 -627,276 -251,0 -460,-91 -629,-275 -165,-177 -247,-392 -247,-644 0,-252 83,-466 247,-644 170,-181 379,-271 629,-271 248,0 456,90 625,271 166,176 249,389 249,640 z m -381,4 c 0,-147 -45,-272 -136,-376 -94,-110 -213,-165 -357,-165 -145,0 -265,54 -360,163 -91,105 -136,231 -136,378 0,144 46,270 138,376 96,112 215,168 358,168 143,0 262,-56 357,-168 91,-106 136,-231 136,-376 z m 3385,811 c 0,47 -14,70 -42,70 -18,0 -46,-2 -82,-6 -37,-4 -65,-6 -85,-6 -20,0 -51,1 -92,4 -41,2 -72,4 -93,4 -25,0 -38,-28 -38,-85 0,-56 2,-138 7,-249 4,-110 6,-193 6,-249 0,-305 -1,-475 -4,-510 -9,-124 -35,-210 -76,-257 -47,-51 -131,-76 -251,-76 -76,0 -161,36 -256,109 -99,76 -150,151 -154,224 -5,94 -7,266 -7,516 0,59 2,147 7,266 5,118 7,207 7,266 0,32 -10,49 -32,49 -22,0 -54,-2 -95,-6 -42,-4 -73,-6 -95,-6 -20,0 -48,1 -85,4 -38,2 -66,4 -85,4 -24,0 -36,-17 -36,-52 0,-58 2,-145 6,-262 4,-116 6,-203 6,-261 l 0,-436 c 0,-136 -16,-233 -49,-291 -46,-82 -133,-123 -262,-123 -76,0 -166,32 -271,96 -115,70 -173,141 -173,212 l 0,528 c 0,60 1,151 2,270 1,120 2,209 2,268 0,35 -14,52 -42,52 l -336,0 c -24,0 -36,-16 -36,-49 0,-97 1,-244 2,-439 1,-196 2,-342 2,-439 0,-220 -24,-440 -72,-659 -4,-15 -6,-28 -6,-38 0,-16 6,-25 17,-27 44,-5 110,-14 196,-28 40,-12 100,-26 180,-41 l 15,-2 c 14,0 28,43 41,128 12,86 24,128 33,128 0,0 30,-27 91,-80 71,-62 142,-111 213,-147 102,-54 205,-80 307,-80 278,0 454,114 530,341 75,-97 167,-176 278,-239 118,-68 235,-102 350,-102 223,0 378,65 463,195 62,97 93,249 93,458 0,39 -1,101 -4,184 -2,83 -4,145 -4,185 0,76 2,190 6,342 4,152 6,267 6,343 z"
       id="path253"
       style="fill:#ffffff;fill-rule:nonzero;filter:url(#filter4395)"
       inkscape:connector-curvature="0" /><g
       id="_1046842272"
       style="filter:url(#filter4407)"><path
         class="fil3"
         d="m 13901,13804 c 0,7 -4,11 -12,11 -29,0 -76,-2 -142,-5 -61,-3 -109,-4 -142,-3 l -41,1 c -26,0 -40,1 -41,2 -7,3 -11,15 -11,35 l 0,134 c 0,25 5,38 16,38 36,0 90,-2 163,-5 72,-3 127,-5 163,-5 8,0 12,3 12,9 0,6 -1,16 -2,28 -1,13 -1,22 -1,28 0,7 0,17 1,31 1,13 1,24 1,30 0,5 -4,7 -12,7 -26,0 -64,-1 -116,-2 -52,-2 -91,-2 -117,-2 -48,0 -75,0 -81,1 -17,2 -25,9 -25,20 0,33 1,83 3,149 2,66 3,116 3,149 0,11 -4,17 -13,17 -7,0 -18,-1 -33,-2 -15,-2 -26,-3 -34,-3 -6,0 -16,1 -29,2 -13,1 -23,2 -29,2 -9,0 -14,-4 -14,-12 0,-41 2,-103 5,-185 3,-82 5,-144 5,-185 0,-38 -4,-162 -11,-372 l 0,-7 c 0,-8 4,-12 14,-13 3,0 27,1 70,2 58,1 112,1 161,1 67,-1 152,-5 256,-11 14,-1 22,5 24,18 0,10 0,25 2,46 4,29 7,47 7,56 z m 378,143 c 0,41 -3,78 -8,111 -1,9 -5,13 -11,13 -8,0 -20,-1 -35,-2 -16,-2 -28,-2 -36,-2 -47,0 -77,13 -90,39 -8,16 -12,49 -12,99 l 0,61 c 0,21 1,52 2,94 2,42 2,74 2,94 0,10 -4,15 -13,15 -11,0 -29,0 -52,-1 -23,0 -41,-1 -52,-1 -8,0 -13,-5 -13,-14 0,-30 1,-75 2,-135 1,-60 1,-106 1,-136 0,-91 -8,-165 -25,-220 -1,-3 -1,-5 -1,-7 0,-5 2,-8 7,-9 13,-2 33,-4 57,-7 40,-8 58,-11 55,-11 6,0 10,11 12,33 2,22 5,33 10,33 1,0 2,0 3,-1 15,-10 30,-19 46,-29 17,-10 34,-17 51,-22 14,-4 33,-7 56,-7 29,0 43,4 43,12 z m 519,223 c 0,27 -12,46 -35,55 -16,6 -131,17 -344,33 5,33 23,60 54,83 30,22 62,33 96,33 59,0 113,-19 161,-56 6,-5 12,-10 18,-14 3,0 5,0 6,1 1,1 8,13 21,38 13,25 20,38 20,40 0,2 -3,6 -9,13 -54,57 -124,86 -209,86 -86,0 -154,-26 -205,-77 -51,-51 -77,-120 -77,-205 0,-76 24,-143 73,-199 52,-59 114,-88 189,-88 70,0 127,26 174,77 45,50 68,110 68,181 z m -132,-34 c 0,-31 -12,-58 -36,-82 -24,-24 -52,-35 -82,-35 -34,0 -64,14 -91,41 -27,27 -40,58 -40,92 0,8 7,12 20,12 55,0 120,-6 197,-16 21,-3 32,-7 32,-11 z m 668,34 c 0,27 -12,46 -35,55 -16,6 -131,17 -344,33 5,33 23,60 54,83 30,22 62,33 96,33 59,0 113,-19 161,-56 6,-5 12,-10 18,-14 3,0 5,0 6,1 1,1 8,13 21,38 13,25 20,38 20,40 0,2 -3,6 -9,13 -54,57 -124,86 -209,86 -86,0 -154,-26 -205,-77 -51,-51 -77,-120 -77,-205 0,-76 24,-143 73,-199 52,-59 114,-88 189,-88 70,0 127,26 174,77 45,50 68,110 68,181 z m -132,-34 c 0,-31 -12,-58 -36,-82 -24,-24 -52,-35 -82,-35 -34,0 -64,14 -91,41 -27,27 -40,58 -40,92 0,8 7,12 20,12 55,0 120,-6 197,-16 21,-3 32,-7 32,-11 z m 1276,318 c 0,9 -5,14 -14,14 -7,0 -17,-1 -30,-2 -13,-1 -23,-2 -30,-2 -7,0 -17,1 -31,2 -14,1 -24,2 -30,2 -9,0 -14,-6 -14,-18 0,-47 1,-117 4,-211 3,-94 4,-164 4,-212 0,-7 -1,-10 -4,-10 -3,0 -6,2 -8,6 -19,40 -63,148 -134,324 -11,34 -28,76 -49,126 -3,4 -16,6 -40,6 -35,0 -54,-3 -58,-9 -13,-30 -31,-72 -54,-126 -31,-73 -78,-182 -142,-327 -1,-3 -3,-5 -7,-8 -3,2 -4,6 -4,12 0,48 1,119 2,215 2,95 2,167 2,215 0,12 -5,18 -14,18 -6,0 -16,-1 -29,-2 -13,-1 -23,-2 -29,-2 -7,0 -17,1 -30,2 -13,1 -23,2 -30,2 -9,0 -14,-4 -14,-11 0,-41 2,-103 6,-185 4,-82 6,-144 6,-185 0,-43 -2,-106 -6,-192 -4,-85 -6,-149 -6,-192 0,-7 4,-11 13,-12 50,-7 88,-10 113,-10 4,0 9,8 16,23 90,197 167,373 231,527 15,36 24,54 27,54 4,0 12,-15 24,-44 51,-120 121,-297 210,-533 6,-15 12,-22 19,-22 13,0 31,1 56,2 25,2 44,2 56,2 9,0 14,5 14,13 0,42 -1,106 -4,192 -3,85 -4,149 -4,192 0,41 2,102 5,183 3,81 5,142 5,183 z m 644,-489 c 0,2 -1,5 -2,10 -15,85 -22,158 -22,219 0,4 5,87 14,249 l 1,8 c 0,11 -5,16 -15,16 -10,0 -26,1 -46,4 -20,2 -36,4 -46,4 -7,0 -12,-13 -16,-39 -4,-26 -7,-39 -11,-39 -2,0 -12,7 -30,22 -22,18 -42,31 -61,40 -29,15 -59,22 -88,22 -72,0 -132,-29 -182,-86 -47,-55 -70,-119 -70,-192 0,-82 23,-150 70,-204 49,-56 114,-84 194,-84 57,0 106,20 148,59 6,7 16,18 30,32 1,1 2,2 3,2 2,0 5,-12 9,-35 4,-23 9,-35 16,-35 10,0 29,3 56,8 31,7 46,13 46,18 z m -142,232 c 0,-45 -13,-84 -41,-117 -28,-35 -65,-53 -109,-53 -44,0 -81,17 -111,52 -28,33 -43,72 -43,117 0,45 14,84 43,117 30,34 67,52 111,52 43,0 80,-18 109,-53 27,-33 41,-71 41,-115 z m 530,169 c 0,8 -1,19 -2,33 -2,17 -3,28 -3,34 0,7 -1,11 -2,12 -2,3 -5,5 -10,8 -30,15 -78,22 -143,22 -86,0 -129,-39 -129,-118 0,-31 1,-79 2,-142 1,-63 2,-110 2,-142 0,-15 -8,-23 -23,-24 -14,0 -27,0 -41,-1 -8,-2 -12,-17 -12,-46 0,-11 1,-22 2,-34 1,-9 7,-14 18,-16 9,0 18,0 27,-1 17,-1 26,-8 26,-23 0,-15 0,-37 -1,-68 -1,-30 -1,-53 -1,-68 0,-27 5,-41 16,-41 3,0 38,6 104,17 9,1 13,5 13,12 0,16 -1,41 -4,74 -3,33 -4,57 -4,73 0,11 5,16 15,16 l 134,0 c 6,0 9,2 9,7 0,4 -1,12 -2,21 -1,10 -2,17 -2,22 0,5 0,14 1,26 0,11 1,20 1,25 0,7 -5,11 -16,11 -15,0 -37,-1 -67,-3 -30,-2 -52,-3 -67,-3 -3,0 -5,11 -7,32 -1,26 -1,63 -1,111 l 0,83 c 0,32 3,54 9,67 9,19 27,29 55,29 11,0 28,-2 50,-7 22,-5 38,-7 49,-7 4,0 7,3 7,10 z m 552,82 c 0,14 -4,21 -12,21 -11,0 -29,0 -52,-1 -23,0 -41,-1 -52,-1 -9,0 -14,-6 -14,-18 0,-18 1,-45 2,-81 1,-36 2,-63 2,-81 0,-17 -1,-43 -2,-77 -1,-34 -2,-61 -2,-78 0,-67 -31,-100 -94,-100 -20,0 -47,10 -80,30 -35,22 -53,42 -53,60 l 0,330 c 0,11 -4,16 -12,16 -12,0 -29,0 -52,-1 -23,0 -40,-1 -52,-1 -9,0 -13,-5 -13,-15 l 0,-268 c 0,-44 -2,-137 -7,-278 -1,-44 -4,-109 -10,-196 -1,-4 -1,-7 -1,-9 0,-6 2,-10 7,-12 6,-2 27,-3 63,-3 8,0 20,-1 35,-4 16,-3 27,-4 34,-4 5,0 7,4 7,11 0,35 -1,87 -4,157 -3,70 -4,122 -4,157 0,9 1,13 4,13 19,-16 43,-35 73,-58 36,-23 74,-34 115,-34 69,0 117,21 144,62 19,30 28,78 28,144 0,11 0,29 -1,53 -1,24 -1,41 -1,53 0,24 0,59 1,106 1,47 1,82 1,105 z m 1315,-475 c 0,3 -37,82 -111,238 -25,54 -63,135 -114,242 -5,10 -10,15 -15,15 l -100,0 c -7,0 -13,-5 -17,-15 -27,-64 -67,-166 -118,-304 -26,68 -65,170 -119,304 -4,10 -10,15 -17,15 l -99,0 c -6,0 -11,-5 -16,-15 -26,-54 -64,-134 -115,-242 -71,-147 -106,-227 -106,-238 0,-30 1,-76 3,-137 2,-61 3,-107 3,-137 0,-7 5,-10 14,-10 7,0 17,1 30,2 13,1 24,2 30,2 6,0 16,0 28,-1 13,-1 22,-1 28,-1 8,0 12,3 12,8 0,30 -2,75 -5,136 -3,60 -5,106 -5,136 0,19 38,105 112,257 25,50 38,76 41,76 1,0 2,-2 3,-4 4,-9 14,-32 28,-71 27,-72 54,-154 82,-246 1,-9 2,-38 2,-88 0,-22 -1,-55 -2,-98 -1,-44 -2,-76 -2,-98 0,-5 4,-8 12,-8 7,0 17,1 31,2 14,1 25,2 32,2 6,0 16,-1 28,-2 13,-1 22,-2 28,-2 9,0 13,3 13,9 0,23 -1,58 -2,105 -1,47 -2,82 -2,105 0,38 0,61 1,69 1,19 29,100 84,244 6,16 16,40 29,70 0,1 1,3 2,4 2,0 15,-25 39,-74 73,-149 110,-234 110,-253 0,-30 -2,-76 -5,-136 -3,-60 -5,-106 -5,-135 0,-5 2,-8 4,-8 8,0 19,1 33,2 15,1 26,2 33,2 7,0 17,-1 31,-2 14,-1 24,-2 31,-2 8,0 12,2 13,7 0,0 0,5 0,16 0,29 1,73 3,131 2,58 3,102 3,131 z m 581,224 c 0,77 -25,143 -76,198 -52,57 -116,85 -192,85 -77,0 -141,-28 -193,-84 -51,-54 -76,-120 -76,-198 0,-77 25,-143 76,-198 52,-56 117,-83 193,-83 76,0 140,28 192,83 51,54 77,120 77,196 z m -117,1 c 0,-45 -14,-84 -42,-115 -29,-34 -65,-51 -110,-51 -45,0 -81,17 -110,50 -28,32 -42,71 -42,116 0,44 14,83 42,115 30,34 66,52 110,52 44,0 81,-17 110,-52 28,-32 42,-71 42,-115 z m 501,-252 c 0,41 -3,78 -8,111 -1,9 -5,13 -11,13 -8,0 -20,-1 -35,-2 -16,-2 -28,-2 -36,-2 -47,0 -77,13 -90,39 -8,16 -12,49 -12,99 l 0,61 c 0,21 1,52 2,94 2,42 2,74 2,94 0,10 -4,15 -13,15 -11,0 -29,0 -52,-1 -23,0 -41,-1 -52,-1 -8,0 -13,-5 -13,-14 0,-30 1,-75 2,-135 1,-60 1,-106 1,-136 0,-91 -8,-165 -25,-220 -1,-3 -1,-5 -1,-7 0,-5 2,-8 7,-9 13,-2 33,-4 57,-7 40,-8 58,-11 55,-11 6,0 10,11 12,33 2,22 5,33 10,33 1,0 2,0 3,-1 15,-10 30,-19 46,-29 17,-10 34,-17 51,-22 14,-4 33,-7 56,-7 29,0 43,4 43,12 z m 596,141 c 0,96 -45,160 -134,193 0,19 18,53 56,102 37,49 56,74 56,74 0,6 -19,9 -56,11 -25,1 -43,2 -55,2 -27,0 -43,-6 -50,-16 -17,-30 -45,-73 -82,-130 -4,-7 -45,-9 -120,-8 l -22,1 0,137 c 0,12 -4,17 -12,17 -12,0 -29,0 -52,-1 -23,0 -41,-1 -52,-1 -8,0 -12,-7 -12,-22 l 0,-345 c 0,-45 -2,-113 -5,-203 -3,-90 -5,-157 -5,-203 0,-7 3,-10 10,-11 12,0 31,-1 55,-2 5,0 16,-2 32,-4 13,-2 24,-3 32,-3 5,0 8,4 8,13 0,20 -1,50 -2,89 -2,40 -2,69 -2,89 l 0,143 c 0,8 2,12 5,12 9,-7 22,-18 40,-33 62,-48 121,-72 178,-72 55,0 99,14 134,42 38,31 57,73 57,126 z m -134,26 c 0,-53 -34,-79 -103,-79 -51,0 -108,34 -172,102 l 0,83 c 30,6 66,8 109,8 43,0 79,-8 110,-24 38,-20 57,-50 57,-89 z m 458,184 c 0,55 -22,99 -66,133 -40,30 -89,45 -146,45 -22,0 -35,-1 -38,-2 -6,-3 -9,-12 -9,-27 0,-8 -1,-20 -3,-37 -2,-16 -3,-28 -3,-36 0,-5 3,-8 10,-9 5,-1 12,-1 20,0 12,1 17,2 17,2 70,0 105,-22 105,-65 0,-20 -15,-39 -46,-56 -50,-27 -78,-44 -86,-51 -31,-26 -46,-61 -46,-103 0,-56 21,-99 63,-130 38,-28 86,-42 144,-42 5,0 9,2 11,7 2,5 7,20 14,45 7,25 10,40 10,46 0,4 -4,7 -11,8 -24,3 -48,6 -72,9 -29,8 -43,23 -43,46 0,17 15,34 45,51 44,25 72,43 84,54 30,29 45,66 45,111 z m 553,152 c 0,14 -4,21 -12,21 -11,0 -29,0 -52,-1 -23,0 -41,-1 -52,-1 -9,0 -14,-6 -14,-18 0,-18 1,-45 2,-81 1,-36 2,-63 2,-81 0,-17 -1,-43 -2,-77 -1,-34 -2,-61 -2,-78 0,-67 -31,-100 -94,-100 -20,0 -47,10 -80,30 -35,22 -53,42 -53,60 l 0,330 c 0,11 -4,16 -12,16 -12,0 -29,0 -52,-1 -23,0 -40,-1 -52,-1 -9,0 -13,-5 -13,-15 l 0,-268 c 0,-44 -2,-137 -7,-278 -1,-44 -4,-109 -10,-196 -1,-4 -1,-7 -1,-9 0,-6 2,-10 7,-12 6,-2 27,-3 63,-3 8,0 20,-1 35,-4 16,-3 27,-4 34,-4 5,0 7,4 7,11 0,35 -1,87 -4,157 -3,70 -4,122 -4,157 0,9 1,13 4,13 19,-16 43,-35 73,-58 36,-23 74,-34 115,-34 69,0 117,21 144,62 19,30 28,78 28,144 0,11 0,29 -1,53 -1,24 -1,41 -1,53 0,24 0,59 1,106 1,47 1,82 1,105 z m 565,-279 c 0,27 -12,46 -35,55 -16,6 -131,17 -344,33 5,33 23,60 54,83 30,22 62,33 96,33 59,0 113,-19 161,-56 6,-5 12,-10 18,-14 3,0 5,0 6,1 1,1 8,13 21,38 13,25 20,38 20,40 0,2 -3,6 -9,13 -54,57 -124,86 -209,86 -86,0 -154,-26 -205,-77 -51,-51 -77,-120 -77,-205 0,-76 24,-143 73,-199 52,-59 114,-88 189,-88 70,0 127,26 174,77 45,50 68,110 68,181 z m -132,-34 c 0,-31 -12,-58 -36,-82 -24,-24 -52,-35 -82,-35 -34,0 -64,14 -91,41 -27,27 -40,58 -40,92 0,8 7,12 20,12 55,0 120,-6 197,-16 21,-3 32,-7 32,-11 z m 668,34 c 0,27 -12,46 -35,55 -16,6 -131,17 -344,33 5,33 23,60 54,83 30,22 62,33 96,33 59,0 113,-19 161,-56 6,-5 12,-10 18,-14 3,0 5,0 6,1 1,1 8,13 21,38 13,25 20,38 20,40 0,2 -3,6 -9,13 -54,57 -124,86 -209,86 -86,0 -154,-26 -205,-77 -51,-51 -77,-120 -77,-205 0,-76 24,-143 73,-199 52,-59 114,-88 189,-88 70,0 127,26 174,77 45,50 68,110 68,181 z m -132,-34 c 0,-31 -12,-58 -36,-82 -24,-24 -52,-35 -82,-35 -34,0 -64,14 -91,41 -27,27 -40,58 -40,92 0,8 7,12 20,12 55,0 120,-6 197,-16 21,-3 32,-7 32,-11 z"
         id="path261"
         inkscape:connector-curvature="0"
         style="fill:#ffaa00;fill-rule:nonzero" /><path
         class="fil3"
         d="m 23294,14366 c 0,8 -1,19 -2,33 -2,17 -3,28 -3,34 0,7 -1,11 -2,12 -2,3 -5,5 -10,8 -30,15 -78,22 -143,22 -86,0 -129,-39 -129,-118 0,-31 1,-79 2,-142 1,-63 2,-110 2,-142 0,-15 -8,-23 -23,-24 -14,0 -27,0 -41,-1 -8,-2 -12,-17 -12,-46 0,-11 1,-22 2,-34 1,-9 7,-14 18,-16 9,0 18,0 27,-1 17,-1 26,-8 26,-23 0,-15 0,-37 -1,-68 -1,-30 -1,-53 -1,-68 0,-27 5,-41 16,-41 3,0 38,6 104,17 9,1 13,5 13,12 0,16 -1,41 -4,74 -3,33 -4,57 -4,73 0,11 5,16 15,16 l 134,0 c 6,0 9,2 9,7 0,4 -1,12 -2,21 -1,10 -2,17 -2,22 0,5 0,14 1,26 0,11 1,20 1,25 0,7 -5,11 -16,11 -15,0 -37,-1 -67,-3 -30,-2 -52,-3 -67,-3 -3,0 -5,11 -7,32 -1,26 -1,63 -1,111 l 0,83 c 0,32 3,54 9,67 9,19 27,29 55,29 11,0 28,-2 50,-7 22,-5 38,-7 49,-7 4,0 7,3 7,10 z m 327,-70 c 0,55 -22,99 -66,133 -40,30 -89,45 -146,45 -22,0 -35,-1 -38,-2 -6,-3 -9,-12 -9,-27 0,-8 -1,-20 -3,-37 -2,-16 -3,-28 -3,-36 0,-5 3,-8 10,-9 5,-1 12,-1 20,0 12,1 17,2 17,2 70,0 105,-22 105,-65 0,-20 -15,-39 -46,-56 -50,-27 -78,-44 -86,-51 -31,-26 -46,-61 -46,-103 0,-56 21,-99 63,-130 38,-28 86,-42 144,-42 5,0 9,2 11,7 2,5 7,20 14,45 7,25 10,40 10,46 0,4 -4,7 -11,8 -24,3 -48,6 -72,9 -29,8 -43,23 -43,46 0,17 15,34 45,51 44,25 72,43 84,54 30,29 45,66 45,111 z"
         id="path263"
         inkscape:connector-curvature="0"
         style="fill:#ffaa00;fill-rule:nonzero" /></g></g></svg>