<svg aria-hidden="true" style="position: absolute; width: 0; height: 0; overflow: hidden;" version="1.1" xmlns="http://www.w3.org/2000/svg" xmlns:xlink="http://www.w3.org/1999/xlink">
<defs>
<symbol id="icon-math-drills-logo" viewBox="0 0 32 32">
<path d="M1.571 1.513v29.091h29.091v-29.091h-29.091zM2.909 2.909h26.182v26.182h-26.182v-26.182z"></path>
<path d="M27.869 6.633c-0.524 0.175-0.873 0.349-1.105 0.524-0.175 0.175-0.291 0.407-0.407 0.698l-0.116 1.571v13.207l0.116 1.455c0.058 0.349 0.175 0.64 0.349 0.815 0.233 0.175 0.582 0.349 1.164 0.524v0.989h-7.738v-0.989l0.931-0.349c0.175-0.058 0.291-0.175 0.407-0.349 0.058-0.116 0.175-0.349 0.175-0.64l0.058-1.513v-7.447c0.017-1.91 0.080-3.758 0.189-5.594l-0.014 0.299h-0.349c-0.352 1.325-0.729 2.429-1.172 3.499l0.067-0.183-4.073 10.938h-2.618l-4.305-12.335-0.64-2.095h-0.291c0.116 1.687 0.175 3.665 0.175 5.935v7.040l0.116 1.571c0.058 0.291 0.175 0.524 0.407 0.698 0.233 0.233 0.582 0.349 1.105 0.524v0.989h-5.702v-0.989l0.873-0.349c0.233-0.116 0.407-0.291 0.524-0.465 0.058-0.233 0.175-0.465 0.175-0.815l0.058-1.164v-13.207l-0.116-1.571c-0.058-0.291-0.175-0.524-0.407-0.698-0.175-0.175-0.524-0.349-1.105-0.524v-0.989h7.505l4.189 12.509 4.48-12.509h7.098v0.989z"></path>
</symbol>
<symbol id="icon-clover" viewBox="0 0 33 32">
<path d="M16 16c3.636 5.091 10.182 10.909 15.273 13.818l0.727-2.909c-5.818-0.727-10.182-6.545-14.545-10.909h-1.455z"></path>
<path d="M17.455 16c-2.182 3.636-6.545 5.091-7.273 8-1.455 3.636 0 7.273 5.818 5.091 4.364 2.909 8-0.727 7.273-5.818-0.727-2.182-5.818-4.364-5.818-7.273z"></path>
<path d="M16.727 16c-0.727 2.909-5.818 5.818-8.727 7.273-3.636 0.727-7.273-0.727-5.091-6.545-2.182-4.364 0.727-7.273 5.091-6.545 2.909 0 5.818 2.909 8.727 5.818z"></path>
<path d="M16.727 16c2.909-3.636 5.818-5.091 6.545-8 1.455-3.636-0.727-7.273-5.818-5.091-4.364-2.182-8 1.455-7.273 5.818 0.727 2.182 4.364 3.636 6.545 7.273z"></path>
<path d="M16.727 16c2.909 2.182 5.818 5.818 8.727 7.273 3.636 0.727 7.273-0.727 5.091-5.818 2.909-5.091-1.455-7.273-5.818-6.545-2.909 0-5.818 2.909-8 5.091z"></path>
</symbol>
<symbol id="icon-thanksgiving" viewBox="0 0 32 32">
<path d="M23.27 13.657c0 0-0.757-6.656-1.142-8.305-0.036-0.157-0.084-0.19-0.122-0.24-0.634-0.839-3.571-1.457-6.016-1.457-3.336 0-5.642 0.59-6.040 1.46-0.036 0.076-0.064 0.155-0.079 0.238l-1.155 8.302h3.819v-1.020c0-0.805 0.659-1.466 1.464-1.466h3.975c0.805 0 1.464 0.66 1.464 1.466v1.020z"></path>
<path d="M14.822 16.811h2.331c0.471 0 0.858-0.387 0.858-0.859v-2.452c0-0.473-0.387-0.859-0.858-0.859h-2.331c-0.471 0-0.858 0.387-0.858 0.859v2.452c0 0.473 0.387 0.859 0.858 0.859z"></path>
<path d="M25.304 19.932c0.119 0.749 0.198 1.315 0.198 1.481 0 2.639-4.901 3.58-9.487 3.58h-0.015c-4.586 0-9.487-0.94-9.487-3.58 0-0.166 0.080-0.733 0.199-1.484-4.063 0.841-6.711 2.22-6.711 3.778 0 2.562 7.163 4.639 16 4.639s16-2.077 16-4.639c0-1.556-2.642-2.933-6.696-3.775z"></path>
<path d="M23.634 15.602l-0.003-0.019h-4.152v1.236c0 0.805-0.659 1.464-1.464 1.464h-4.016c-0.805 0-1.464-0.659-1.464-1.464v-1.236h-4.152l-0.003 0.019c0 0-0.949 5.367-0.949 5.811 0 1.625 3.832 2.661 8.569 2.661 0.003 0 0.005 0 0.008 0s0.005 0 0.008 0c4.737 0 8.569-1.036 8.569-2.661-0-0.444-0.949-5.811-0.949-5.811z"></path>
</symbol>
<symbol id="icon-cat" viewBox="0 0 45 32">
<path d="M30.492 31.032c-0.438-0.175-0.617-0.707-0.671-0.94-0.092-0.461-0.131-0.317-0.133-1.895-0.002-1.343-0.399-5.451-0.571-5.899-0.095-0.249-0.307-0.288-0.306-0.058 0.006 1.75-0.142 4.892-0.243 5.159-0.074 0.194-0.134 0.54-0.134 0.769 0 0.949-0.552 1.914-1.263 2.208-0.31 0.128-0.41 0.112-0.741-0.124-0.211-0.15-0.357-0.315-0.411-0.401-0.113-0.179-0.171-0.247-0.235-0.416-0.104-0.274-0.101-0.55 0.008-1.214 0.072-0.44 0.215-1.077 0.319-1.416s0.188-1.040 0.188-1.558c0-0.805-0.075-1.134-0.519-2.272-1.659-4.25-2.102-4.664-3.215-3-0.668 0.998-2.538 3.065-3.362 3.716-0.929 0.735-1.35 1.227-1.35 1.58 0 0.22 0.317 0.658 1.050 1.453l1.050 1.138h0.635c0.519 0 0.714 0.067 1.070 0.367 0.424 0.358 0.43 0.376 0.242 0.722-0.19 0.35-0.21 0.355-1.503 0.391-1.162 0.032-1.332 0.009-1.503-0.203-0.106-0.131-0.396-0.374-0.645-0.539-0.811-0.537-2.827-2.542-3.365-3.346-0.289-0.432-0.608-0.785-0.708-0.785-0.276 0-0.938 0.991-0.938 1.402 0 0.198 0.191 0.656 0.424 1.017s0.559 0.912 0.725 1.223c0.271 0.51 0.354 0.572 0.852 0.639 0.61 0.082 1.115 0.532 0.895 0.797-0.067 0.081-0.090 0.269-0.052 0.418 0.094 0.358-0.334 0.467-1.376 0.352-1.217-0.134-1.296-0.174-1.969-0.994-0.828-1.008-1.652-2.617-2.089-4.081-0.35-1.17-0.35-1.175-0.138-1.947 0.847-1.85 0.27-3.665 0.034-4.793-0.048-0.276-0.225-0.796-0.392-1.154s-0.305-0.729-0.305-0.824c0-0.251-0.456-1.155-0.673-1.336-0.102-0.085-0.66-0.176-1.24-0.203-1.054-0.048-1.931-0.302-2.686-0.777-0.871-0.547-2.434-1.703-2.434-1.799 0-0.058-0.226-0.34-0.503-0.628s-0.537-0.674-0.58-0.858c-0.043-0.184-0.178-0.561-0.3-0.837s-0.289-0.94-0.37-1.475c-0.299-2.443 1.202-4.529 2.254-5.591 2.535-2.41 4.727-2.795 5.251-2.392 0.609 0.468-1.928 0.952-4.61 5.117-0.531 0.825-0.765 1.366-0.765 2.229 0 0.864 0.31 1.686 0.879 2.333 1.042 1.184 3.465 2.456 4.393 2.306 0.316-0.051 0.601-0.25 1.036-0.723 0.33-0.359 0.6-0.704 0.6-0.766s0.226-0.316 0.502-0.565c0.276-0.248 0.502-0.525 0.502-0.616s0.155-0.247 0.345-0.348c0.19-0.101 0.6-0.428 0.911-0.729 2.529-2.358 5.264-3.677 9.572-4.608 2.413-0.549 4.997-0.035 7.3 0.596 1.199 0.218 2.655 1.95 3.082 1.154 0.316-0.606 0.427-1.39 0.444-3.121 0.008-0.815 0.064-1.34 0.147-1.367 0.243-0.081 0.977 0.517 1.534 1.25 0.52 0.684 0.481 1.094 0.738 1.158 0.639 0.056 1.329-0.189 1.862-0.112 0.687 0.026 1.108 0.101 1.716 0.349 0.179 0.073 0.416-0.223 0.882-0.627 0.858-0.743 1.969-1.285 2.126-1.037 0.174 0.275 0.132 0.772-0.138 1.617-0.138 0.433-0.252 0.906-0.253 1.053s-0.086 0.545-0.19 0.886c-0.127 0.42-0.164 0.867-0.112 1.382 0.145 1.454-0.83 3.264-2.249 4.174-0.341 0.219-0.586 0.532-0.848 1.085-0.202 0.428-0.368 0.854-0.368 0.947 0 0.665-2.226 4.308-3.461 5.665-1.062 1.167-1.493 2.151-1.928 4.403-0.14 0.725-0.346 1.63-0.457 2.010-0.47 1.609-0.483 1.763-0.229 2.755 0.214 0.837 0.276 0.944 0.598 1.030 0.762 0.204 1.223 1.046 0.804 1.466-0.166 0.166-2.201 0.211-2.438 0.055zM39.319 8.838c0.57-0.204 1.112-0.597 0.886-0.886 0 0-1.18-0.112-1.628 0.079-0.433 0.185-0.785 0.268-0.556 0.788 0.157 0.356 0.799 0.197 1.297 0.019zM35.874 8.655c0.1-0.168 0.072-0.344 0.072-0.408 0-0.184-0.462-0.458-0.884-0.633-0.457-0.189-1.357-0.695-1.353-0.256 0.002 0.328 0.758 1.173 1.085 1.358 0.361 0.204 0.875 0.283 1.080-0.061z"></path>
</symbol>
<symbol id="icon-easter" viewBox="0 0 32 32">
<path d="M5.645 18.238c-0.971 0.049-2.079-0.12-2.965-0.513-1.921-0.851-1.61-3.113-0.955-4.742 0.378-0.941 0.981-1.815 1.664-2.561 0.326-0.356 0.679-0.774 1.096-1.023 0.489-0.293 1.091-0.252 1.621-0.431 0.451-0.152 0.908-0.334 1.293-0.62 0.718-0.534 0.925-1.331 1.008-2.183 0.124-1.283 0.107-4.233 2.175-3.826 0.731 0.144 1.072 0.558 1.131 1.3 0.075 0.939-0.623 1.939-1.14 2.66-0.529 0.737-0.214 1.007 0.12 0.14 0.312-0.81 0.982-1.96 1.729-2.493 0.512-0.365 1.149-0.22 1.48 0.312 0.447 0.719 0.071 1.622-0.296 2.285-0.488 0.88-3.348 3.98-1.694 4.863 1.378 0.736 3.372-0.673 4.83-0.652 1.258 0.018 2.523 0.428 3.701 0.832 1.613 0.553 3.233 1.237 4.62 2.243 2.189 1.589 2.77 3.709 2.865 6.282 0.016 0.418 0.029 0.836 0.044 1.255 0.591-0.139 1.555-0.833 2.144-0.482 0.934 0.557-0.319 2.342-0.812 2.785-0.624 0.56-1.268 0.617-2.054 0.702-0.955 0.103-1.692 0.752-2.245 1.502-0.422 0.572-0.564 0.783-1.233 1.040-0.703 0.27-1.323 0.517-2.079 0.566-1.073 0.070-2.125 0.298-3.183 0.477-0.682 0.116-1.584 0.187-2.070-0.423-0.409-0.514-0.167-1.090 0.325-1.43 0.449-0.31 1.077-0.65 1.63-0.679-0.683-0.287-1.509-0.278-2.231-0.453-0.588-0.143-1.915-0.946-2.256-0.281-0.322 0.628-0.448 1.361-1.031 1.839-0.553 0.454-1.47 0.083-1.884-0.39-0.309 1.11-2.214 1.689-3.242 1.39-1.635-0.476 0.555-1.832 0.989-2.309 0.64-0.703 0.531-1.422-0.181-2.023-0.697-0.587-1.295-1.134-1.862-1.868-0.602-0.782-1.511-2.066-1.049-3.093z"></path>
</symbol>
<symbol id="icon-parents" viewBox="0 0 32 32">
<path d="M0.253 20.785c0.037-0.257 0.091-0.513 0.165-0.76 0.073-0.458 0.137-0.86 0.192-1.262 0.037-0.393 0.082-0.915 0.128-1.446 0.027-0.356 0.055-0.686 0.092-1.015 0.256-1.226 0.54-2.489 0.851-3.742 0.531-1.939 0.979-3.632 1.409-5.343 0.284-0.878 0.622-1.921 0.97-2.973 0.064-0.302 0.274-0.75 0.567-1.144 0.293-0.43 0.677-0.796 1.125-1.070 0.979-0.467 1.967-0.851 2.982-1.153 0.192-0.055 0.393-0.128 0.577-0.22 0.274-0.165 0.521-0.366 0.723-0.613 0.073-0.082 0.119-0.183 0.155-0.284 0-0.027 0.009-0.055 0.009-0.082 0.009-0.018 0.009-0.037 0.009-0.055 0.073-0.338 0.101-0.686 0.101-1.034v-1.006c0-0.064-0.018-0.128-0.055-0.183-0.467-0.842-0.759-1.766-0.86-2.726-0.055-0.796 0.009-1.592 0.201-2.369 0.073-0.266 0.147-0.531 0.229-0.796 0.1-0.257 0.247-0.503 0.439-0.714 0.292-0.366 0.677-0.659 1.107-0.86 0.768-0.412 1.665-0.567 2.534-0.43 0.503 0.073 0.997 0.274 1.418 0.586 0.11 0.091 0.22 0.192 0.32 0.302 0.266 0.293 0.485 0.613 0.668 0.961 0.018 0.046 0.036 0.091 0.055 0.147 0.046 0.137 0.073 0.292 0.073 0.448v0.046c-0.009 0.082-0.027 0.173-0.036 0.266-0.064 0.32-0.147 0.64-0.247 0.942 0.018 0.238 0.027 0.467 0.027 0.686 0 0.384-0.027 0.769-0.082 1.153-0.037 0.284-0.091 0.576-0.147 0.869-0.036 0.192-0.101 0.375-0.173 0.54-0.019 0.201-0.065 0.403-0.138 0.595-0.018 0.073-0.054 0.146-0.1 0.21-0.165 0.192-0.348 0.366-0.558 0.512-0.138 0.082-0.275 0.165-0.412 0.247-0.091 0.046-0.183 0.082-0.274 0.101-0.073 0.54-0.119 1.107-0.119 1.665 0 0.174 0.009 0.339 0.009 0.512 0.037 0.21 0.138 0.421 0.302 0.586 0.704 0.522 1.455 0.961 2.241 1.317 0.302 0.11 0.586 0.302 0.805 0.549 0.274 0.32 0.494 0.686 0.659 1.070 0.265 0.851 0.457 1.72 0.549 2.607 0.284 1.986 0.512 3.779 0.723 5.572 0.037 0.384 0.091 0.997 0.128 1.601 0.028 0.22 0.082 0.522 0.165 0.815 0.192 0.777 0.329 1.564 0.411 2.351 0.21 0.44 0.311 0.659 0.412 0.879 0.128 0.329 0.32 0.805 0.503 1.281 0.028 0.11 0.046 0.229 0.055 0.339v0.036c0 0.156-0.009 0.311-0.037 0.467-0.009 0.028-0.009 0.046-0.018 0.073 0.028-0.091-0.018 0.073-0.064 0.247-0.018 0.85 0.073 1.262 0.201 1.683 0.037 0.137 0.128 0.265 0.256 0.338 0.75 0.348 1.51 0.613 2.296 0.815h0.22c0.247 0 0.512-0.028 0.76-0.092 0.11-0.155 0.192-0.338 0.256-0.521v-0.028c0-0.128-0.055-0.238-0.137-0.329-0.092-0.064-0.202-0.128-0.302-0.192-0.329-0.219-0.549-0.522-0.649-0.878-0.082-0.256-0.082-0.54 0-0.796 0.055-0.202 0.101-0.375 0.137-0.549 0.009-0.028 0.019-0.064 0.019-0.11 0-0.037-0.009-0.083-0.019-0.119s-0.036-0.073-0.054-0.101c0-0.009-0.009-0.009-0.009-0.018-0.064-0.101-0.11-0.21-0.128-0.321-0.101-0.475-0.037-0.969 0.192-1.408 0.156-0.394 0.448-0.723 0.823-0.924 0.768-0.448 1.693-0.549 2.544-0.302 0.393 0.082 0.778 0.256 1.098 0.512 0.055 0.055 0.11 0.11 0.155 0.174 0.275 0.402 0.421 0.878 0.439 1.363-0.027 0.586-0.137 1.18-0.32 1.757-0.311 0.759-0.695 1.473-1.162 2.132-0.046 0.054-0.091 0.119-0.137 0.173-0.055 0.064-0.073 0.137-0.073 0.21v0.064c0.018 0.165 0.046 0.329 0.073 0.494 0.009 0.046 0.036 0.101 0.073 0.138 0.019 0.009 0.028 0.018 0.028 0.027 0.037 0.028 0.073 0.064 0.11 0.101 0.457 0.512 0.842 1.098 1.125 1.738 0.219 0.411 0.393 0.851 0.521 1.308 0.823 2.479 1.455 4.382 2.068 6.295-0.173-0.586-0.128-0.476-0.082-0.366 0.073 0.147 0.128 0.302 0.183 0.467 0.028 0.202 0.054 0.393 0.082 0.577v-0.009c0 0.037-0.009 0.073-0.028 0.101-0.054 0.128-0.155 0.229-0.274 0.292-0.173 0.055-0.357 0.046-0.53-0.009-0.11-0.046-0.202-0.119-0.274-0.202-0.046-0.046-0.083-0.091-0.101-0.146-0.055-0.174-0.101-0.339-0.128-0.513-0.009-0.183-0.009-0.375 0.009-0.558l-0.741-1.354-1.144-2.095c-0.009 0.174-0.009 0.357-0.009 0.54 0 1.381 0.173 2.763 0.521 4.108-0.356 0.311-0.759 0.586-1.18 0.814l0.238 2.671 0.21 2.296c0.054-0.036 0.128-0.064 0.192-0.073 0.247-0.054 0.503 0.083 0.604 0.321 0.009 0.036 0.018 0.073 0.018 0.11v0.037c0 0.009-0.009 0.018-0.009 0.027-0.238 0.394-0.503 0.778-0.805 1.144-0.083 0.11-0.183 0.192-0.293 0.237-0.128 0.073-0.256 0.119-0.393 0.147-0.064 0.009-0.128-0.009-0.174-0.036-0.027-0.018-0.036-0.037-0.046-0.055l-1.902-6.121c-0.293 0.037-0.604 0.046-0.906 0.037l-0.467 6.532c-0.036 0.256-0.174 0.485-0.375 0.649-0.009 0-0.018 0.009-0.028 0.019-0.073 0.064-0.165 0.11-0.265 0.137-0.174 0.018-0.348 0.018-0.522-0.009-0.101-0.018-0.202-0.055-0.293-0.091-0.311-0.22-0.668-0.467-1.024-0.714-0.21-0.173-0.247-0.356-0.183-0.512 0.073-0.21 0.229-0.384 0.43-0.467 0.156-0.028 0.321-0.009 0.476 0.046 0.083 0.037 0.165 0.101 0.22 0.183h0.009c0.028 0 0.046-0.018 0.046-0.036v-0.009l-0.842-6.23c-0.604-0.201-1.189-0.503-1.72-0.869 0.723-1.738 1.345-3.412 1.894-5.114 0.101-0.338 0.183-0.731 0.247-1.125 0.073-0.366 0.128-0.704 0.174-1.052v-0.165c0-0.338-0.073-0.677-0.22-0.988-0.009-0.009-0.018-0.027-0.036-0.046-0.21-0.311-0.448-0.604-0.714-0.878-0.229-0.256-0.475-0.512-0.723-0.768-0.183-0.192-0.338-0.403-0.467-0.622-0.082-0.173-0.165-0.366-0.238-0.558-0.036-0.147-0.054-0.292-0.054-0.439 0.009-0.595 0.036-1.143 0.073-1.693-0.137-0.393-0.292-0.851-0.457-1.308v-0.393c0-0.092 0-0.202-0.009-0.302-0.173-0.292-0.375-0.576-0.586-0.85-0.21-0.284-0.421-0.586-0.622-0.887-0.357-0.631-0.659-1.281-0.906-1.94-0.128-0.329-0.229-0.668-0.293-1.006-0.018-0.393-0.073-0.796-0.165-1.189-0.174-0.714-0.403-1.455-0.659-2.177l-0.082 10.503-1.052 0.494 0.348 6.377-1.143 7.612c0.302-0.274 0.768-0.247 1.043 0.055 0.11 0.173 0.183 0.384 0.183 0.594 0 0.128-0.028 0.256-0.073 0.375-0.128 0.348-0.329 0.677-0.586 0.942-0.439 0.53-0.896 1.043-1.39 1.519-0.256 0.266-0.54 0.458-0.851 0.595-0.174 0.055-0.348 0.091-0.522 0.091-0.11-0.009-0.192-0.073-0.247-0.155-0.11-0.183-0.202-0.366-0.275-0.567-0.054-0.256-0.082-0.522-0.073-0.787v-0.165c0-0.265 0-0.53-0.009-0.796 0.082-1.025 0.147-1.757 0.22-2.488 0.036-0.961 0.064-2.077 0.064-3.184-0.028-0.869-0.083-1.82-0.174-2.781-0.1-0.887-0.357-3.202-0.604-5.526l-0.732-1.336c-0.256 3.733-0.768 10.851-1.318 17.968-0.183 1.427-0.375 1.967-0.64 2.479-0.137 0.284-0.43 0.467-0.75 0.467-0.439 0.054-0.879-0.138-1.153-0.485-0.741-0.988-1.308-2.095-1.683-3.275-0.073-0.21-0.055-0.43 0.037-0.622 0.101-0.192 0.247-0.356 0.421-0.493 0.128-0.092 0.293-0.138 0.448-0.11 0.156 0.046 0.302 0.101 0.457 0.174l-0.64-16.916-0.695-0.329 0.302-3.669c0.494-4.556 0.75-6.907 1.025-9.259-0.375 2.114-0.567 2.608-0.787 3.092-0.183 0.476-0.375 0.906-0.567 1.336-0.412 0.961-0.805 1.985-1.18 3.010-0.192 0.631-0.412 1.345-0.631 2.068-0.284 0.969-0.485 1.683-0.668 2.397 0.037 0.366 0.064 0.696 0.064 1.025v0.11c-0.018 0.43-0.091 0.86-0.21 1.272-0.046 0.155-0.11 0.292-0.192 0.421-0.119 0.183-0.274 0.348-0.448 0.485-0.018 0.018-0.037 0.036-0.064 0.036-0.165 0.055-0.348 0.046-0.503-0.027-0.421-0.147-0.704-0.549-0.695-1.006 0.009-0.329 0.055-0.65 0.119-0.961z"></path>
</symbol>
<symbol id="icon-locked" viewBox="0 0 32 32">
<path d="M4 31v-16h3v-5c0-4.418 3.581-8 8-8h1c4.418 0 8 3.582 8 8v5h3v16h-23zM14.744 22.787l-0.744 5.213h3l-0.745-5.213c0.729-0.298 1.245-1.013 1.245-1.85 0-1.104-0.896-2-2-2-1.105 0-2 0.896-2 2 0 0.837 0.515 1.552 1.244 1.85zM21 10.5c0-3.038-2.463-5.5-5.5-5.5-3.038 0-5.5 2.462-5.5 5.5v4.5h11v-4.5z"></path>
</symbol>
<symbol id="icon-ruler" viewBox="0 0 32 32">
<path d="M23.023 29.006v-2.029h-1.013v2.029h-1.014v-2.029h-1.016v2.029h-0.951v-3.043h-1.014v3.043h-1.014v-2.029h-1.014v2.029h-0.951v-2.029h-1.014v2.029h-1.015v-3.043h-1.014v3.043h-1.014v-2.029h-0.949v2.029h-1.014v-2.029h-1.015v2.029h-1.013v-3.043h-0.951v3.043h-3.042v-25.011l25.011 25.011h-4.983zM6.988 13.584v11.365h11.364l-11.364-11.365z"></path>
</symbol>
<symbol id="icon-layout" viewBox="0 0 32 32">
<path d="M3 4v25h25v-25h-25zM11 28h-7v-7h7v7zM11 20h-7v-7h7v7zM11 12h-7v-7h7v7zM19 28h-7v-7h7v7zM19 20h-7v-7h7v7zM19 12h-7v-7h7v7zM27 28h-7v-7h7v7zM27 20h-7v-7h7v7zM27 12h-7v-7h7v7z"></path>
</symbol>
<symbol id="icon-abacus" viewBox="0 0 32 32">
<path d="M3 29v-25h25v25h-25zM26 6h-21v6h2.017c0.149-1.12 0.746-1.959 1.462-1.959 0.717 0 1.314 0.839 1.462 1.959h1.071c0.144-1.131 0.745-1.979 1.466-1.979s1.322 0.849 1.466 1.979h7.067c0.144-1.131 0.745-1.979 1.466-1.979 0.722 0 1.322 0.849 1.467 1.979h2.056v-6zM26 13h-2.050c-0.134 1.151-0.741 2.021-1.472 2.021-0.729 0-1.336-0.869-1.471-2.021h-7.057c-0.134 1.151-0.741 2.021-1.471 2.021s-1.337-0.87-1.471-2.021h-1.057c-0.129 1.161-0.738 2.041-1.472 2.041s-1.343-0.88-1.472-2.041h-2.007v7h7.992c0.144-1.131 0.746-1.979 1.466-1.979 0.721 0 1.323 0.849 1.467 1.979h0.999c0.129-1.161 0.738-2.042 1.473-2.042 0.733 0 1.342 0.881 1.472 2.042h1.12c0.139-1.142 0.744-2 1.47-2s1.331 0.858 1.47 2h2.071v-7zM26 21h-2.072c-0.139 1.141-0.744 2-1.47 2s-1.331-0.859-1.47-2h-1.13c-0.149 1.119-0.746 1.958-1.462 1.958s-1.314-0.839-1.463-1.958h-1.004c-0.134 1.151-0.741 2.021-1.471 2.021-0.729 0-1.336-0.869-1.471-2.021h-7.987v6h21v-6z"></path>
</symbol>
<symbol id="icon-dollar" viewBox="0 0 38 32">
<path d="M36.002 23.010l0.057-17.089-31.050 0.019-0.001-1.96h32.992v19.031l-1.998-0.001zM34.995 26.017l-1.997-0.002 0.057-17.089-31.050 0.020-0.001-1.96h32.992v19.031zM32.053 28.020h-32.053v-18.030h32.053v18.030zM30.049 11.931h-28.046v14.086h28.045v-14.086zM27.045 24.515c0 0.177 0.044 0.342 0.101 0.5h-11.12c2.766 0 5.009-2.69 5.009-6.010s-2.243-6.010-5.009-6.010h11.119c-0.057 0.158-0.101 0.323-0.101 0.501 0 0.83 0.672 1.502 1.502 1.502 0.178 0 0.343-0.044 0.501-0.101v8.215c-0.158-0.056-0.323-0.101-0.501-0.101-0.829 0.001-1.501 0.674-1.501 1.504zM25.041 16.919c-0.83 0-1.502 0.896-1.502 2.003s0.672 2.003 1.502 2.003 1.502-0.896 1.502-2.003-0.672-2.003-1.502-2.003zM18.123 15.394c0.015 0.029 0.027 0.068 0.037 0.116 0.011 0.048 0.018 0.109 0.021 0.182 0.005 0.073 0.007 0.164 0.007 0.273 0 0.121-0.003 0.224-0.009 0.307-0.007 0.084-0.018 0.153-0.031 0.207-0.016 0.055-0.036 0.095-0.062 0.119-0.027 0.025-0.064 0.038-0.11 0.038s-0.118-0.029-0.219-0.087c-0.101-0.059-0.224-0.121-0.369-0.189s-0.315-0.131-0.507-0.187-0.402-0.084-0.632-0.084c-0.18 0-0.336 0.021-0.469 0.065-0.134 0.044-0.246 0.104-0.335 0.181s-0.157 0.17-0.2 0.277c-0.044 0.108-0.066 0.223-0.066 0.343 0 0.18 0.049 0.335 0.147 0.467s0.229 0.248 0.395 0.35c0.165 0.103 0.352 0.198 0.56 0.288s0.421 0.185 0.638 0.284c0.217 0.101 0.43 0.214 0.639 0.342 0.209 0.127 0.395 0.279 0.557 0.456 0.163 0.178 0.295 0.386 0.395 0.626s0.15 0.522 0.15 0.848c0 0.425-0.080 0.799-0.238 1.119-0.158 0.321-0.373 0.59-0.645 0.805s-0.588 0.376-0.951 0.484c-0.046 0.014-0.096 0.020-0.143 0.031v1.094h-0.985v-0.965c-0.013 0-0.024 0.003-0.037 0.003-0.279 0-0.539-0.023-0.779-0.068s-0.452-0.101-0.635-0.164c-0.184-0.064-0.337-0.132-0.46-0.202s-0.212-0.132-0.266-0.186-0.093-0.132-0.116-0.234-0.035-0.25-0.035-0.442c0-0.129 0.004-0.238 0.013-0.325 0.008-0.088 0.022-0.159 0.041-0.214 0.019-0.054 0.044-0.093 0.075-0.116 0.031-0.022 0.068-0.034 0.109-0.034 0.059 0 0.141 0.034 0.248 0.104 0.106 0.068 0.243 0.145 0.41 0.228s0.366 0.159 0.598 0.228c0.231 0.069 0.5 0.104 0.804 0.104 0.2 0 0.38-0.024 0.538-0.072s0.293-0.116 0.404-0.203c0.11-0.088 0.194-0.197 0.253-0.326s0.088-0.274 0.088-0.433c0-0.184-0.051-0.342-0.15-0.473-0.1-0.132-0.23-0.248-0.391-0.351s-0.343-0.198-0.547-0.287c-0.205-0.090-0.415-0.185-0.632-0.285s-0.428-0.214-0.632-0.341c-0.204-0.127-0.387-0.279-0.547-0.457-0.16-0.177-0.291-0.387-0.391-0.628-0.1-0.242-0.15-0.532-0.15-0.87 0-0.388 0.072-0.729 0.216-1.022 0.144-0.294 0.338-0.538 0.582-0.732s0.532-0.339 0.863-0.435c0.17-0.049 0.346-0.085 0.527-0.109v-1.035h0.985v1.035c0.039 0.005 0.078 0.003 0.117 0.009 0.192 0.029 0.372 0.068 0.539 0.118 0.166 0.050 0.314 0.105 0.443 0.168s0.215 0.113 0.258 0.155c0.039 0.037 0.067 0.072 0.082 0.102zM11.018 19.005c0 3.319 2.242 6.010 5.008 6.010h-11.119c0.056-0.158 0.101-0.323 0.101-0.5 0-0.83-0.673-1.503-1.502-1.503-0.178 0-0.343 0.045-0.501 0.101v-8.215c0.158 0.057 0.323 0.101 0.501 0.101 0.83 0 1.502-0.672 1.502-1.502 0-0.178-0.045-0.343-0.101-0.501h11.119c-2.766-0.001-5.008 2.69-5.008 6.009zM7.011 16.919c-0.83 0-1.502 0.896-1.502 2.003s0.673 2.003 1.502 2.003c0.83 0 1.502-0.896 1.502-2.003s-0.672-2.003-1.502-2.003z"></path>
</symbol>
<symbol id="icon-times" viewBox="0 0 24 24">
<path d="M17.414 6.586c-0.78-0.781-2.048-0.781-2.828 0l-2.586 2.586-2.586-2.586c-0.78-0.781-2.048-0.781-2.828 0-0.781 0.781-0.781 2.047 0 2.828l2.585 2.586-2.585 2.586c-0.781 0.781-0.781 2.047 0 2.828 0.39 0.391 0.902 0.586 1.414 0.586s1.024-0.195 1.414-0.586l2.586-2.586 2.586 2.586c0.39 0.391 0.902 0.586 1.414 0.586s1.024-0.195 1.414-0.586c0.781-0.781 0.781-2.047 0-2.828l-2.585-2.586 2.585-2.586c0.781-0.781 0.781-2.047 0-2.828z"></path>
</symbol>
<symbol id="icon-plus" viewBox="0 0 24 24">
<path d="M18 10h-4v-4c0-1.104-0.896-2-2-2s-2 0.896-2 2l0.071 4h-4.071c-1.104 0-2 0.896-2 2s0.896 2 2 2l4.071-0.071-0.071 4.071c0 1.104 0.896 2 2 2s2-0.896 2-2v-4.071l4 0.071c1.104 0 2-0.896 2-2s-0.896-2-2-2z"></path>
</symbol>
<symbol id="icon-minus" viewBox="0 0 24 24">
<path d="M18 11h-12c-1.104 0-2 0.896-2 2s0.896 2 2 2h12c1.104 0 2-0.896 2-2s-0.896-2-2-2z"></path>
</symbol>
<symbol id="icon-equals" viewBox="0 0 24 24">
<path d="M18 7h-12c-1.104 0-2 0.896-2 2s0.896 2 2 2h12c1.104 0 2-0.896 2-2s-0.896-2-2-2z"></path>
<path d="M18 14h-12c-1.104 0-2 0.896-2 2s0.896 2 2 2h12c1.104 0 2-0.896 2-2s-0.896-2-2-2z"></path>
</symbol>
<symbol id="icon-divide" viewBox="0 0 24 24">
<path d="M14.25 6c0 1.243-1.007 2.25-2.25 2.25s-2.25-1.007-2.25-2.25c0-1.243 1.007-2.25 2.25-2.25s2.25 1.007 2.25 2.25z"></path>
<path d="M14.25 18c0 1.243-1.007 2.25-2.25 2.25s-2.25-1.007-2.25-2.25c0-1.243 1.007-2.25 2.25-2.25s2.25 1.007 2.25 2.25z"></path>
<path d="M18 10h-12c-1.104 0-2 0.896-2 2s0.896 2 2 2h12c1.104 0 2-0.896 2-2s-0.896-2-2-2z"></path>
</symbol>
<symbol id="icon-th-small" viewBox="0 0 24 24">
<path d="M7.5 19c0 1.381-1.119 2.5-2.5 2.5s-2.5-1.119-2.5-2.5c0-1.381 1.119-2.5 2.5-2.5s2.5 1.119 2.5 2.5z"></path>
<path d="M7.5 12c0 1.381-1.119 2.5-2.5 2.5s-2.5-1.119-2.5-2.5c0-1.381 1.119-2.5 2.5-2.5s2.5 1.119 2.5 2.5z"></path>
<path d="M7.5 5c0 1.381-1.119 2.5-2.5 2.5s-2.5-1.119-2.5-2.5c0-1.381 1.119-2.5 2.5-2.5s2.5 1.119 2.5 2.5z"></path>
<path d="M14.5 19c0 1.381-1.119 2.5-2.5 2.5s-2.5-1.119-2.5-2.5c0-1.381 1.119-2.5 2.5-2.5s2.5 1.119 2.5 2.5z"></path>
<path d="M14.5 12c0 1.381-1.119 2.5-2.5 2.5s-2.5-1.119-2.5-2.5c0-1.381 1.119-2.5 2.5-2.5s2.5 1.119 2.5 2.5z"></path>
<path d="M14.5 5c0 1.381-1.119 2.5-2.5 2.5s-2.5-1.119-2.5-2.5c0-1.381 1.119-2.5 2.5-2.5s2.5 1.119 2.5 2.5z"></path>
<path d="M21.5 19c0 1.381-1.119 2.5-2.5 2.5s-2.5-1.119-2.5-2.5c0-1.381 1.119-2.5 2.5-2.5s2.5 1.119 2.5 2.5z"></path>
<path d="M21.5 12c0 1.381-1.119 2.5-2.5 2.5s-2.5-1.119-2.5-2.5c0-1.381 1.119-2.5 2.5-2.5s2.5 1.119 2.5 2.5z"></path>
<path d="M21.5 5c0 1.381-1.119 2.5-2.5 2.5s-2.5-1.119-2.5-2.5c0-1.381 1.119-2.5 2.5-2.5s2.5 1.119 2.5 2.5z"></path>
</symbol>
<symbol id="icon-sort-numerically-outline" viewBox="0 0 24 24">
<path d="M23.292 12.134c0.138-0.445 0.208-0.91 0.208-1.384 0-2.619-2.131-4.75-4.75-4.75-1.396 0-2.685 0.61-3.573 1.632-0.021-0.021-0.035-0.046-0.056-0.067-0.973-0.974-2.349-1.533-3.776-1.533-1.422 0-2.794 0.556-3.77 1.525-0.264-0.431-0.644-0.813-1.122-1.108-0.474-0.294-1.032-0.449-1.613-0.449-0.482 0-0.955 0.109-1.369 0.316l-1.406 0.747c-1.442 0.721-2.051 2.526-1.313 4.002 0.272 0.543 0.714 0.982 1.248 1.272v4.663c0 1.654 1.346 3 3 3 0.766 0 1.458-0.297 1.989-0.771 0.54 0.487 1.25 0.771 2.011 0.771h5c0.778 0 1.479-0.305 2.010-0.795 0.796 0.5 1.731 0.795 2.74 0.795 2.895 0 5.25-2.355 5.25-5.25 0-0.922-0.25-1.825-0.708-2.616zM6 17c0 0.552-0.448 1-1 1s-1-0.448-1-1v-6.382c-0.144 0.072-0.306 0.106-0.471 0.106-0.401 0-0.813-0.203-0.988-0.553-0.247-0.494-0.031-1.095 0.463-1.342l1.361-0.724c0.141-0.070 0.307-0.105 0.475-0.105 0.199 0 0.4 0.050 0.561 0.149 0.294 0.183 0.599 0.504 0.599 0.851v8zM14 18h-5c-0.404 0-0.769-0.244-0.924-0.617-0.155-0.374-0.069-0.804 0.217-1.090l4-4c0.254-0.254 0.394-0.591 0.394-0.95s-0.14-0.695-0.394-0.949-0.601-0.381-0.949-0.381-0.696 0.127-0.952 0.382c-0.252 0.252-0.392 0.589-0.392 0.948 0 0.552-0.448 1-1 1s-1-0.448-1-1c0-0.894 0.348-1.733 0.98-2.364s1.498-0.947 2.364-0.947 1.731 0.316 2.363 0.948c0.632 0.631 0.979 1.471 0.979 2.363 0 0.893-0.348 1.733-0.979 2.364l-2.293 2.293h2.586c0.552 0 1 0.448 1 1s-0.448 1-1 1zM18.75 18c-1.792 0-3.25-1.458-3.25-3.25 0-0.552 0.448-1 1-1s1 0.448 1 1c0 0.689 0.561 1.25 1.25 1.25s1.25-0.561 1.25-1.25-0.561-1.25-1.25-1.25c-0.552 0-1-0.448-1-1s0.448-1 1-1c0.414 0 0.75-0.336 0.75-0.75s-0.336-0.75-0.75-0.75c-0.281 0-0.536 0.155-0.665 0.404-0.178 0.343-0.527 0.54-0.889 0.54-0.155 0-0.312-0.036-0.459-0.112-0.491-0.254-0.682-0.857-0.428-1.348 0.475-0.915 1.41-1.484 2.441-1.484 1.516 0 2.75 1.233 2.75 2.75 0 0.611-0.207 1.17-0.545 1.627 0.639 0.594 1.045 1.434 1.045 2.373 0 1.792-1.458 3.25-3.25 3.25z"></path>
</symbol>
<symbol id="icon-download" viewBox="0 0 40 40">
<path d="M30 14h-6v-12h-8v12h-6l10 10 10-10zM38.676 27.064c-0.42-0.448-3.222-3.446-4.022-4.228-0.53-0.518-1.288-0.836-2.084-0.836h-3.514l6.128 5.988h-7.088c-0.204 0-0.388 0.104-0.48 0.266l-1.632 3.746h-11.968l-1.632-3.746c-0.092-0.162-0.278-0.266-0.48-0.266h-7.088l6.126-5.988h-3.512c-0.794 0-1.552 0.318-2.084 0.836-0.8 0.784-3.602 3.782-4.022 4.228-0.978 1.042-1.516 1.872-1.26 2.898l1.122 6.148c0.256 1.028 1.382 1.872 2.504 1.872h32.624c1.122 0 2.248-0.844 2.504-1.872l1.122-6.148c0.252-1.026-0.284-1.856-1.264-2.898z"></path>
</symbol>
<symbol id="icon-upload" viewBox="0 0 40 40">
<path d="M16 24h8v-12h6l-10-10-10 10h6v12zM38.676 27.064c-0.42-0.448-3.222-3.446-4.022-4.228-0.53-0.518-1.288-0.836-2.084-0.836h-3.514l6.128 5.988h-7.088c-0.204 0-0.388 0.104-0.48 0.266l-1.632 3.746h-11.968l-1.632-3.746c-0.092-0.162-0.278-0.266-0.48-0.266h-7.088l6.126-5.988h-3.512c-0.794 0-1.552 0.318-2.084 0.836-0.8 0.784-3.602 3.782-4.022 4.228-0.978 1.042-1.516 1.872-1.26 2.898l1.122 6.148c0.256 1.028 1.382 1.872 2.504 1.872h32.624c1.122 0 2.248-0.844 2.504-1.872l1.122-6.148c0.252-1.026-0.284-1.856-1.264-2.898z"></path>
</symbol>
<symbol id="icon-clock" viewBox="0 0 40 40">
<path d="M20 0.8c-10.606 0-19.202 8.596-19.202 19.2 0 10.606 8.596 19.202 19.202 19.202 10.602 0 19.2-8.596 19.2-19.202 0-10.604-8.598-19.2-19.2-19.2zM19.998 35.2c-8.394 0-15.2-6.804-15.2-15.2 0-8.394 6.804-15.2 15.2-15.2 8.394 0 15.202 6.804 15.202 15.2 0 8.394-6.808 15.2-15.202 15.2zM22 18.66v-10.66h-4v12.49l-7.092 4.096 2 3.464 8.23-4.754c0.476-0.274 0.862-0.946 0.862-1.496v-0.336l8.48-8.332c-0.396-0.542-0.822-1.058-1.294-1.532l-7.186 7.060z"></path>
</symbol>
<symbol id="icon-help-with-circle" viewBox="0 0 40 40">
<path d="M20 0.8c-10.604 0-19.2 8.596-19.2 19.2s8.596 19.2 19.2 19.2c10.602 0 19.2-8.596 19.2-19.202 0-10.602-8.598-19.198-19.2-19.198zM19.698 31.198h-0.102c-1.564-0.046-2.668-1.2-2.622-2.742 0.044-1.516 1.174-2.618 2.686-2.618l0.092 0.004c1.608 0.046 2.7 1.188 2.654 2.774-0.046 1.52-1.156 2.582-2.708 2.582zM26.28 18.136c-0.368 0.52-1.176 1.172-2.196 1.966l-1.124 0.774c-0.616 0.48-0.988 0.934-1.126 1.376-0.112 0.348-0.164 0.442-0.174 1.152v0.18h-4.29l0.012-0.364c0.054-1.488 0.090-2.368 0.708-3.094 0.97-1.136 3.11-2.516 3.2-2.574 0.308-0.23 0.566-0.492 0.758-0.774 0.45-0.622 0.648-1.11 0.648-1.586 0-0.668-0.196-1.286-0.586-1.832-0.376-0.532-1.090-0.796-2.122-0.796-1.024 0-1.726 0.324-2.144 0.992-0.432 0.682-0.65 1.4-0.65 2.134v0.184h-4.422l0.008-0.192c0.114-2.706 1.082-4.656 2.87-5.794 1.126-0.722 2.528-1.088 4.162-1.088 2.136 0 3.944 0.52 5.364 1.544 1.442 1.038 2.172 2.594 2.172 4.622-0.002 1.134-0.36 2.2-1.068 3.17z"></path>
</symbol>
<symbol id="icon-new" viewBox="0 0 40 40">
<path d="M37.38 24.688l-3.454-3.076c-1-0.89-1-2.348 0-3.238l3.454-3.078c1-0.89 0.734-1.718-0.592-1.848l-4.58-0.434c-1.324-0.124-2.040-1.266-1.582-2.532l2.43-6.766c0.456-1.27-0.102-1.73-1.238-1.028l-5.402 3.34c-1.136 0.708-2.606 0.32-3.262-0.852l-1.956-3.492c-0.658-1.176-1.744-1.18-2.414-0.016l-1.818 3.16c-0.674 1.17-2.216 1.666-3.426 1.112l-3.2-1.468c-1.216-0.56-2.146 0.084-2.074 1.432l0.172 3.23c0.074 1.348-0.922 2.734-2.208 3.082l-3.090 0.828c-1.284 0.348-1.52 1.36-0.52 2.25l3.454 3.078c1 0.89 1 2.348 0 3.238l-3.454 3.078c-1 0.89-0.736 1.754 0.586 1.914l4.19 0.508c1.322 0.16 2.058 1.34 1.636 2.622l-2.148 6.516c-0.422 1.282 0.18 1.778 1.336 1.11l4.926-2.852c1.156-0.668 2.712-0.3 3.458 0.816l2.044 3.078c0.744 1.118 1.862 1.058 2.48-0.136l1.798-3.466c0.62-1.196 2.104-1.684 3.296-1.086l3.468 1.734c1.196 0.594 2.114-0.020 2.042-1.364l-0.174-3.234c-0.070-1.348 0.922-2.73 2.212-3.078l3.086-0.832c1.288-0.348 1.524-1.36 0.524-2.25zM22 28h-4v-4h4v4zM22 22h-4v-10h4v10z"></path>
</symbol>
<symbol id="icon-print" viewBox="0 0 40 40">
<path d="M3.002 12h34c1.14 0 0.954-1.216 0.386-1.414-0.57-0.198-6.886-2.586-7.988-2.586h-1.4v-6h-16v6h-1.398c-1.1 0-7.418 2.388-7.986 2.586s-0.754 1.414 0.386 1.414zM38 14h-36c-1.1 0-2 0.9-2 2v10c0 1.102 0.9 2 2 2h4.566l-1.764 10h30.398l-1.766-10h4.566c1.102 0 2-0.898 2-2v-10c0-1.1-0.898-2-2-2zM9.206 34l2.396-14.006h16.798l2.398 14.006h-21.592z"></path>
</symbol>
<symbol id="icon-ruler2" viewBox="0 0 40 40">
<path d="M28.498 0.876l-27.622 27.626c-1.168 1.168-1.168 3.076 0.004 4.248l6.37 6.374c1.168 1.168 3.082 1.172 4.248 0.004l27.626-27.626c1.168-1.17 1.168-3.082 0-4.25l-6.372-6.376c-1.174-1.172-3.084-1.166-4.254 0zM7.858 30.624l-1.518 1.518-3.792-3.794 1.518-1.518 3.792 3.794zM13.93 30.624l-1.518 1.518-6.83-6.83 1.518-1.52 6.83 6.832zM13.93 24.552l-1.518 1.518-3.796-3.792 1.52-1.52 3.794 3.794zM16.966 21.516l-1.518 1.518-3.792-3.792 1.518-1.52 3.792 3.794zM23.036 21.516l-1.518 1.518-6.828-6.828 1.518-1.518 6.828 6.828zM23.036 15.446l-1.518 1.518-3.792-3.792 1.518-1.518 3.792 3.792zM26.072 12.412l-1.518 1.518-3.794-3.794 1.518-1.518 3.794 3.794zM32.144 12.412l-1.52 1.518-6.828-6.83 1.518-1.52 6.83 6.832zM32.142 6.342l-1.518 1.518-3.792-3.796 1.518-1.516 3.792 3.794z"></path>
</symbol>
<symbol id="icon-share" viewBox="0 0 40 40">
<path d="M30 26.884c-1.266 0-2.408 0.492-3.274 1.284l-11.876-6.926c0.092-0.376 0.15-0.768 0.15-1.168s-0.058-0.79-0.15-1.166l11.75-6.858c0.892 0.834 2.084 1.35 3.4 1.35 2.758 0 5-2.242 5-5s-2.242-5-5-5-5 2.242-5 5c0 0.4 0.058 0.792 0.15 1.166l-11.75 6.858c-0.892-0.832-2.084-1.35-3.4-1.35-2.758 0-5 2.242-5 5s2.242 5 5 5c1.316 0 2.508-0.516 3.4-1.35l11.876 6.926c-0.084 0.35-0.134 0.716-0.134 1.092 0 2.684 2.174 4.858 4.858 4.858s4.858-2.176 4.858-4.858-2.174-4.858-4.858-4.858z"></path>
</symbol>
<symbol id="icon-pinterest" viewBox="0 0 40 40">
<path d="M17.234 26.454c-1.052 5.508-2.334 10.788-6.136 13.546-1.172-8.324 1.722-14.574 3.068-21.21-2.294-3.86 0.276-11.624 5.11-9.71 5.95 2.352-5.152 14.344 2.3 15.844 7.782 1.562 10.958-13.5 6.132-18.398-6.97-7.076-20.292-0.166-18.652 9.964 0.398 2.476 2.956 3.226 1.022 6.644-4.462-0.988-5.794-4.508-5.622-9.2 0.276-7.68 6.898-13.054 13.542-13.8 8.402-0.942 16.288 3.086 17.378 10.988 1.226 8.922-3.792 18.586-12.778 17.89-2.436-0.19-3.456-1.398-5.364-2.558z"></path>
</symbol>
<symbol id="icon-brightness-up" viewBox="0 0 40 40">
<path d="M20 28c-4.418 0-8-3.582-8-8s3.582-8 8-8v0c4.418 0 8 3.582 8 8s-3.582 8-8 8v0zM18 2c0-1.105 0.895-2 2-2s2 0.895 2 2v0 4c0 1.105-0.895 2-2 2s-2-0.895-2-2v0-4zM31.3 5.88c0.369-0.429 0.913-0.699 1.519-0.699 1.105 0 2 0.895 2 2 0 0.607-0.27 1.15-0.696 1.517l-0.003 0.002-2.8 2.8c-0.369 0.429-0.913 0.699-1.519 0.699-1.105 0-2-0.895-2-2 0-0.607 0.27-1.15 0.696-1.517l0.003-0.002 2.8-2.8zM37.98 18c1.105 0 2 0.895 2 2s-0.895 2-2 2v0h-3.96c-1.105 0-2-0.895-2-2s0.895-2 2-2v0h3.96zM34.12 31.3c0.429 0.369 0.699 0.913 0.699 1.519 0 1.105-0.895 2-2 2-0.607 0-1.15-0.27-1.517-0.696l-0.002-0.003-2.8-2.8c-0.429-0.369-0.699-0.913-0.699-1.519 0-1.105 0.895-2 2-2 0.607 0 1.15 0.27 1.517 0.696l0.002 0.003 2.8 2.8zM22 37.98c0 1.105-0.895 2-2 2s-2-0.895-2-2v0-3.96c0-1.105 0.895-2 2-2s2 0.895 2 2v0 3.96zM8.7 34.12c-0.369 0.429-0.912 0.699-1.519 0.699-1.105 0-2-0.895-2-2 0-0.607 0.27-1.15 0.696-1.517l0.003-0.002 2.8-2.8c0.369-0.429 0.913-0.699 1.519-0.699 1.105 0 2 0.895 2 2 0 0.607-0.27 1.15-0.696 1.517l-0.003 0.002-2.8 2.8zM2.020 22c-1.105 0-2-0.895-2-2s0.895-2 2-2v0h3.96c1.105 0 2 0.895 2 2s-0.895 2-2 2v0h-3.96zM5.88 8.7c-0.429-0.369-0.699-0.912-0.699-1.519 0-1.105 0.895-2 2-2 0.607 0 1.15 0.27 1.517 0.696l0.002 0.003 2.8 2.8c0.429 0.369 0.699 0.913 0.699 1.519 0 1.105-0.895 2-2 2-0.607 0-1.15-0.27-1.517-0.696l-0.002-0.003-2.8-2.8z"></path>
</symbol>
<symbol id="icon-shopping-cart" viewBox="0 0 40 40">
<path d="M8 4h32l-6 18h-26c-1.105 0-2 0.895-2 2s0.895 2 2 2v0h26v4h-26c-3.314 0-6-2.686-6-6s2.686-6 6-6v0h0.66l-2.66-8-2-6h-4v-4h6c1.105 0 2 0.895 2 2v0 2zM10 40c-2.209 0-4-1.791-4-4s1.791-4 4-4v0c2.209 0 4 1.791 4 4s-1.791 4-4 4v0zM30 40c-2.209 0-4-1.791-4-4s1.791-4 4-4v0c2.209 0 4 1.791 4 4s-1.791 4-4 4v0z"></path>
</symbol>
<symbol id="icon-edit" viewBox="0 0 28 28">
<path d="M13.875 18.5l1.813-1.813-2.375-2.375-1.813 1.813v0.875h1.5v1.5h0.875zM20.75 7.25c-0.141-0.141-0.375-0.125-0.516 0.016l-5.469 5.469c-0.141 0.141-0.156 0.375-0.016 0.516s0.375 0.125 0.516-0.016l5.469-5.469c0.141-0.141 0.156-0.375 0.016-0.516zM22 16.531v2.969c0 2.484-2.016 4.5-4.5 4.5h-13c-2.484 0-4.5-2.016-4.5-4.5v-13c0-2.484 2.016-4.5 4.5-4.5h13c0.625 0 1.25 0.125 1.828 0.391 0.141 0.063 0.25 0.203 0.281 0.359 0.031 0.172-0.016 0.328-0.141 0.453l-0.766 0.766c-0.141 0.141-0.328 0.187-0.5 0.125-0.234-0.063-0.469-0.094-0.703-0.094h-13c-1.375 0-2.5 1.125-2.5 2.5v13c0 1.375 1.125 2.5 2.5 2.5h13c1.375 0 2.5-1.125 2.5-2.5v-1.969c0-0.125 0.047-0.25 0.141-0.344l1-1c0.156-0.156 0.359-0.187 0.547-0.109s0.313 0.25 0.313 0.453zM20.5 5l4.5 4.5-10.5 10.5h-4.5v-4.5zM27.438 7.063l-1.437 1.437-4.5-4.5 1.437-1.437c0.578-0.578 1.547-0.578 2.125 0l2.375 2.375c0.578 0.578 0.578 1.547 0 2.125z"></path>
</symbol>
<symbol id="icon-arrows-h" viewBox="0 0 28 28">
<path d="M28 14c0 0.266-0.109 0.516-0.297 0.703l-4 4c-0.187 0.187-0.438 0.297-0.703 0.297-0.547 0-1-0.453-1-1v-2h-16v2c0 0.547-0.453 1-1 1-0.266 0-0.516-0.109-0.703-0.297l-4-4c-0.187-0.187-0.297-0.438-0.297-0.703s0.109-0.516 0.297-0.703l4-4c0.187-0.187 0.438-0.297 0.703-0.297 0.547 0 1 0.453 1 1v2h16v-2c0-0.547 0.453-1 1-1 0.266 0 0.516 0.109 0.703 0.297l4 4c0.187 0.187 0.297 0.438 0.297 0.703z"></path>
</symbol>
<symbol id="icon-bar-chart" viewBox="0 0 32 28">
<path d="M10 14v8h-4v-8h4zM16 6v16h-4v-16h4zM32 24v2h-32v-24h2v22h30zM22 10v12h-4v-12h4zM28 4v18h-4v-18h4z"></path>
</symbol>
<symbol id="icon-superscript" viewBox="0 0 24 28">
<path d="M14.016 21.391v2.609h-3.875l-2.484-3.938-0.375-0.656c-0.094-0.109-0.141-0.219-0.172-0.328h-0.047c-0.031 0.109-0.094 0.219-0.141 0.328-0.094 0.187-0.234 0.438-0.391 0.688l-2.422 3.906h-4.031v-2.609h2l3.078-4.547-2.891-4.25h-2.141v-2.625h4.312l2.172 3.563c0.141 0.219 0.25 0.453 0.359 0.656 0.094 0.109 0.141 0.219 0.172 0.328h0.047c0.031-0.109 0.094-0.219 0.172-0.328l0.391-0.656 2.188-3.563h4.016v2.625h-1.953l-2.875 4.172 3.187 4.625h1.703zM23.969 10.781v3.219h-8.031l-0.047-0.422c-0.031-0.219-0.063-0.516-0.063-0.719 0-4.266 5.469-4.625 5.469-6.891 0-0.812-0.734-1.359-1.563-1.359-0.594 0-1.125 0.281-1.516 0.609-0.203 0.172-0.391 0.391-0.562 0.594l-1.641-1.437c0.281-0.391 0.594-0.719 0.984-1.031 0.656-0.516 1.609-1.016 2.938-1.016 2.266 0 3.844 1.328 3.844 3.406 0 3.75-5.187 4.062-5.406 6.297h3.625v-1.25h1.969z"></path>
</symbol>
<symbol id="icon-sort-amount-asc" viewBox="0 0 28 28">
<path d="M11.5 22.5c0 0.141-0.063 0.266-0.156 0.375l-4.984 4.984c-0.109 0.094-0.234 0.141-0.359 0.141s-0.25-0.047-0.359-0.141l-5-5c-0.141-0.156-0.187-0.359-0.109-0.547s0.266-0.313 0.469-0.313h3v-21.5c0-0.281 0.219-0.5 0.5-0.5h3c0.281 0 0.5 0.219 0.5 0.5v21.5h3c0.281 0 0.5 0.219 0.5 0.5zM28 24.5v3c0 0.281-0.219 0.5-0.5 0.5h-13c-0.281 0-0.5-0.219-0.5-0.5v-3c0-0.281 0.219-0.5 0.5-0.5h13c0.281 0 0.5 0.219 0.5 0.5zM25 16.5v3c0 0.281-0.219 0.5-0.5 0.5h-10c-0.281 0-0.5-0.219-0.5-0.5v-3c0-0.281 0.219-0.5 0.5-0.5h10c0.281 0 0.5 0.219 0.5 0.5zM22 8.5v3c0 0.281-0.219 0.5-0.5 0.5h-7c-0.281 0-0.5-0.219-0.5-0.5v-3c0-0.281 0.219-0.5 0.5-0.5h7c0.281 0 0.5 0.219 0.5 0.5zM19 0.5v3c0 0.281-0.219 0.5-0.5 0.5h-4c-0.281 0-0.5-0.219-0.5-0.5v-3c0-0.281 0.219-0.5 0.5-0.5h4c0.281 0 0.5 0.219 0.5 0.5z"></path>
</symbol>
<symbol id="icon-cube" viewBox="0 0 26 28">
<path d="M14 25.453l10-5.453v-9.938l-10 3.641v11.75zM13 11.937l10.906-3.969-10.906-3.969-10.906 3.969zM26 8v12c0 0.734-0.406 1.406-1.047 1.75l-11 6c-0.297 0.172-0.625 0.25-0.953 0.25s-0.656-0.078-0.953-0.25l-11-6c-0.641-0.344-1.047-1.016-1.047-1.75v-12c0-0.844 0.531-1.594 1.313-1.875l11-4c0.219-0.078 0.453-0.125 0.688-0.125s0.469 0.047 0.688 0.125l11 4c0.781 0.281 1.313 1.031 1.313 1.875z"></path>
</symbol>
<symbol id="icon-cubes" viewBox="0 0 34 28">
<path d="M10 25.5l6-3v-4.906l-6 2.562v5.344zM9 18.406l6.312-2.703-6.312-2.703-6.312 2.703zM26 25.5l6-3v-4.906l-6 2.562v5.344zM25 18.406l6.312-2.703-6.312-2.703-6.312 2.703zM18 13.828l6-2.578v-4.156l-6 2.562v4.172zM17 7.906l6.891-2.953-6.891-2.953-6.891 2.953zM34 16v6.5c0 0.75-0.422 1.453-1.109 1.781l-7 3.5c-0.281 0.156-0.578 0.219-0.891 0.219s-0.609-0.063-0.891-0.219l-7-3.5c-0.047-0.016-0.078-0.031-0.109-0.063-0.031 0.031-0.063 0.047-0.109 0.063l-7 3.5c-0.281 0.156-0.578 0.219-0.891 0.219s-0.609-0.063-0.891-0.219l-7-3.5c-0.688-0.328-1.109-1.031-1.109-1.781v-6.5c0-0.797 0.484-1.516 1.219-1.844l6.781-2.906v-6.25c0-0.797 0.484-1.516 1.219-1.844l7-3c0.25-0.109 0.516-0.156 0.781-0.156s0.531 0.047 0.781 0.156l7 3c0.734 0.328 1.219 1.047 1.219 1.844v6.25l6.781 2.906c0.75 0.328 1.219 1.047 1.219 1.844z"></path>
</symbol>
<symbol id="icon-tree" viewBox="0 0 24 28">
<path d="M23.5 23c0 0.547-0.453 1-1 1h-7.219c0.047 1 0.172 2.047 0.172 3.063 0 0.516-0.422 0.938-0.953 0.938h-5c-0.531 0-0.953-0.422-0.953-0.938 0-1.016 0.125-2.063 0.172-3.063h-7.219c-0.547 0-1-0.453-1-1 0-0.266 0.109-0.516 0.297-0.703l6.281-6.297h-3.578c-0.547 0-1-0.453-1-1 0-0.266 0.109-0.516 0.297-0.703l6.281-6.297h-3.078c-0.547 0-1-0.453-1-1 0-0.266 0.109-0.516 0.297-0.703l6-6c0.187-0.187 0.438-0.297 0.703-0.297s0.516 0.109 0.703 0.297l6 6c0.187 0.187 0.297 0.438 0.297 0.703 0 0.547-0.453 1-1 1h-3.078l6.281 6.297c0.187 0.187 0.297 0.438 0.297 0.703 0 0.547-0.453 1-1 1h-3.578l6.281 6.297c0.187 0.187 0.297 0.438 0.297 0.703z"></path>
</symbol>
<symbol id="icon-percent" viewBox="0 0 24 28">
<path d="M20 20c0-1.094-0.906-2-2-2s-2 0.906-2 2 0.906 2 2 2 2-0.906 2-2zM8 8c0-1.094-0.906-2-2-2s-2 0.906-2 2 0.906 2 2 2 2-0.906 2-2zM24 20c0 3.313-2.688 6-6 6s-6-2.688-6-6 2.688-6 6-6 6 2.688 6 6zM22.5 3c0 0.219-0.078 0.422-0.203 0.594l-16.5 22c-0.187 0.25-0.484 0.406-0.797 0.406h-2.5c-0.547 0-1-0.453-1-1 0-0.219 0.078-0.422 0.203-0.594l16.5-22c0.187-0.25 0.484-0.406 0.797-0.406h2.5c0.547 0 1 0.453 1 1zM12 8c0 3.313-2.688 6-6 6s-6-2.688-6-6 2.688-6 6-6 6 2.688 6 6z"></path>
</symbol>
<symbol id="icon-braille" viewBox="0 0 34 28">
<path d="M3 18.5c-1.375 0-2.5 1.125-2.5 2.5s1.125 2.5 2.5 2.5 2.5-1.125 2.5-2.5-1.125-2.5-2.5-2.5zM11 18.5c-1.375 0-2.5 1.125-2.5 2.5s1.125 2.5 2.5 2.5 2.5-1.125 2.5-2.5-1.125-2.5-2.5-2.5zM11 10.5c-1.375 0-2.5 1.125-2.5 2.5s1.125 2.5 2.5 2.5 2.5-1.125 2.5-2.5-1.125-2.5-2.5-2.5zM23 18.5c-1.375 0-2.5 1.125-2.5 2.5s1.125 2.5 2.5 2.5 2.5-1.125 2.5-2.5-1.125-2.5-2.5-2.5zM31 18.5c-1.375 0-2.5 1.125-2.5 2.5s1.125 2.5 2.5 2.5 2.5-1.125 2.5-2.5-1.125-2.5-2.5-2.5zM23 10.5c-1.375 0-2.5 1.125-2.5 2.5s1.125 2.5 2.5 2.5 2.5-1.125 2.5-2.5-1.125-2.5-2.5-2.5zM31 10.5c-1.375 0-2.5 1.125-2.5 2.5s1.125 2.5 2.5 2.5 2.5-1.125 2.5-2.5-1.125-2.5-2.5-2.5zM31 2.5c-1.375 0-2.5 1.125-2.5 2.5s1.125 2.5 2.5 2.5 2.5-1.125 2.5-2.5-1.125-2.5-2.5-2.5zM6 21c0 1.656-1.344 3-3 3s-3-1.344-3-3 1.344-3 3-3v0c1.656 0 3 1.344 3 3zM14 21c0 1.656-1.344 3-3 3s-3-1.344-3-3 1.344-3 3-3v0c1.656 0 3 1.344 3 3zM6 13c0 1.656-1.344 3-3 3s-3-1.344-3-3 1.344-3 3-3 3 1.344 3 3zM14 13c0 1.656-1.344 3-3 3s-3-1.344-3-3 1.344-3 3-3v0c1.656 0 3 1.344 3 3zM6 5c0 1.656-1.344 3-3 3s-3-1.344-3-3 1.344-3 3-3 3 1.344 3 3zM26 21c0 1.656-1.344 3-3 3s-3-1.344-3-3 1.344-3 3-3v0c1.656 0 3 1.344 3 3zM14 5c0 1.656-1.344 3-3 3s-3-1.344-3-3 1.344-3 3-3 3 1.344 3 3zM34 21c0 1.656-1.344 3-3 3s-3-1.344-3-3 1.344-3 3-3v0c1.656 0 3 1.344 3 3zM26 13c0 1.656-1.344 3-3 3s-3-1.344-3-3 1.344-3 3-3v0c1.656 0 3 1.344 3 3zM34 13c0 1.656-1.344 3-3 3s-3-1.344-3-3 1.344-3 3-3v0c1.656 0 3 1.344 3 3zM26 5c0 1.656-1.344 3-3 3s-3-1.344-3-3 1.344-3 3-3 3 1.344 3 3zM34 5c0 1.656-1.344 3-3 3s-3-1.344-3-3 1.344-3 3-3v0c1.656 0 3 1.344 3 3z"></path>
</symbol>
<symbol id="icon-graduation-cap" viewBox="0 0 36 28">
<path d="M27.719 13.062l0.281 4.937c0.125 2.203-4.484 4-10 4s-10.125-1.797-10-4l0.281-4.937 8.969 2.828c0.25 0.078 0.5 0.109 0.75 0.109s0.5-0.031 0.75-0.109zM36 8c0 0.219-0.141 0.406-0.344 0.484l-17.5 5.5c-0.063 0.016-0.109 0.016-0.156 0.016s-0.094 0-0.156-0.016l-10.187-3.219c-0.891 0.703-1.516 2.422-1.641 4.531 0.594 0.344 0.984 0.969 0.984 1.703 0 0.703-0.359 1.313-0.906 1.672l0.906 6.766c0.016 0.141-0.031 0.281-0.125 0.391s-0.234 0.172-0.375 0.172h-3c-0.141 0-0.281-0.063-0.375-0.172s-0.141-0.25-0.125-0.391l0.906-6.766c-0.547-0.359-0.906-0.969-0.906-1.672 0-0.75 0.422-1.391 1.016-1.734 0.094-1.828 0.562-3.797 1.531-5.156l-5.203-1.625c-0.203-0.078-0.344-0.266-0.344-0.484s0.141-0.406 0.344-0.484l17.5-5.5c0.063-0.016 0.109-0.016 0.156-0.016s0.094 0 0.156 0.016l17.5 5.5c0.203 0.078 0.344 0.266 0.344 0.484z"></path>
</symbol>
<symbol id="icon-home" viewBox="0 0 32 32">
<path d="M32 18.451l-16-12.42-16 12.42v-5.064l16-12.42 16 12.42zM28 18v12h-8v-8h-8v8h-8v-12l12-9z"></path>
</symbol>
<symbol id="icon-newspaper" viewBox="0 0 32 32">
<path d="M28 8v-4h-28v22c0 1.105 0.895 2 2 2h27c1.657 0 3-1.343 3-3v-17h-4zM26 26h-24v-20h24v20zM4 10h20v2h-20zM16 14h8v2h-8zM16 18h8v2h-8zM16 22h6v2h-6zM4 14h10v10h-10z"></path>
</symbol>
<symbol id="icon-file-text" viewBox="0 0 32 32">
<path d="M27 0h-24c-1.65 0-3 1.35-3 3v26c0 1.65 1.35 3 3 3h24c1.65 0 3-1.35 3-3v-26c0-1.65-1.35-3-3-3zM26 28h-22v-24h22v24zM8 14h14v2h-14zM8 18h14v2h-14zM8 22h14v2h-14zM8 10h14v2h-14z"></path>
</symbol>
<symbol id="icon-calculator" viewBox="0 0 32 32">
<path d="M12 2h-10c-1.1 0-2 0.9-2 2v10c0 1.1 0.9 2 2 2h10c1.1 0 2-0.9 2-2v-10c0-1.1-0.9-2-2-2zM12 10h-10v-2h10v2zM28 2h-10c-1.1 0-2 0.9-2 2v26c0 1.1 0.9 2 2 2h10c1.1 0 2-0.9 2-2v-26c0-1.1-0.9-2-2-2zM28 20h-10v-2h10v2zM28 14h-10v-2h10v2zM12 18h-10c-1.1 0-2 0.9-2 2v10c0 1.1 0.9 2 2 2h10c1.1 0 2-0.9 2-2v-10c0-1.1-0.9-2-2-2zM12 26h-4v4h-2v-4h-4v-2h4v-4h2v4h4v2z"></path>
</symbol>
<symbol id="icon-pushpin" viewBox="0 0 32 32">
<path d="M17 0l-3 3 3 3-7 8h-7l5.5 5.5-8.5 11.269v1.231h1.231l11.269-8.5 5.5 5.5v-7l8-7 3 3 3-3-15-15zM14 17l-2-2 7-7 2 2-7 7z"></path>
</symbol>
<symbol id="icon-compass2" viewBox="0 0 32 32">
<path d="M16 0c-8.837 0-16 7.163-16 16s7.163 16 16 16 16-7.163 16-16-7.163-16-16-16zM3 16c0-7.18 5.82-13 13-13 3.424 0 6.538 1.325 8.86 3.488l-12.86 5.512-5.512 12.86c-2.164-2.322-3.488-5.436-3.488-8.86zM18.286 18.286l-8.003 3.43 3.43-8.003 4.573 4.573zM16 29c-3.424 0-6.539-1.325-8.86-3.488l12.86-5.512 5.512-12.86c2.164 2.322 3.488 5.436 3.488 8.86 0 7.18-5.82 13-13 13z"></path>
</symbol>
<symbol id="icon-clock2" viewBox="0 0 32 32">
<path d="M20.586 23.414l-6.586-6.586v-8.828h4v7.172l5.414 5.414zM16 0c-8.837 0-16 7.163-16 16s7.163 16 16 16 16-7.163 16-16-7.163-16-16-16zM16 28c-6.627 0-12-5.373-12-12s5.373-12 12-12c6.627 0 12 5.373 12 12s-5.373 12-12 12z"></path>
</symbol>
<symbol id="icon-calendar" viewBox="0 0 32 32">
<path d="M10 12h4v4h-4zM16 12h4v4h-4zM22 12h4v4h-4zM4 24h4v4h-4zM10 24h4v4h-4zM16 24h4v4h-4zM10 18h4v4h-4zM16 18h4v4h-4zM22 18h4v4h-4zM4 18h4v4h-4zM26 0v2h-4v-2h-14v2h-4v-2h-4v32h30v-32h-4zM28 30h-26v-22h26v22z"></path>
</symbol>
<symbol id="icon-undo" viewBox="0 0 32 32">
<path d="M16 2c-4.418 0-8.418 1.791-11.313 4.687l-4.686-4.687v12h12l-4.485-4.485c2.172-2.172 5.172-3.515 8.485-3.515 6.627 0 12 5.373 12 12 0 3.584-1.572 6.801-4.063 9l2.646 3c3.322-2.932 5.417-7.221 5.417-12 0-8.837-7.163-16-16-16z"></path>
</symbol>
<symbol id="icon-bubbles4" viewBox="0 0 36 32">
<path d="M15 4c-1.583 0-3.112 0.248-4.543 0.738-1.341 0.459-2.535 1.107-3.547 1.926-1.876 1.518-2.91 3.463-2.91 5.474 0 1.125 0.315 2.217 0.935 3.247 0.646 1.073 1.622 2.056 2.821 2.842 0.951 0.624 1.592 1.623 1.761 2.748 0.028 0.187 0.051 0.375 0.068 0.564 0.085-0.079 0.169-0.16 0.254-0.244 0.754-0.751 1.771-1.166 2.823-1.166 0.167 0 0.335 0.011 0.503 0.032 0.605 0.077 1.223 0.116 1.836 0.116 1.583 0 3.112-0.248 4.543-0.738 1.341-0.459 2.535-1.107 3.547-1.926 1.876-1.518 2.91-3.463 2.91-5.474s-1.033-3.956-2.91-5.474c-1.012-0.819-2.206-1.467-3.547-1.926-1.431-0.49-2.96-0.738-4.543-0.738zM15 0v0c8.284 0 15 5.435 15 12.139s-6.716 12.139-15 12.139c-0.796 0-1.576-0.051-2.339-0.147-3.222 3.209-6.943 3.785-10.661 3.869v-0.785c2.008-0.98 3.625-2.765 3.625-4.804 0-0.285-0.022-0.564-0.063-0.837-3.392-2.225-5.562-5.625-5.562-9.434 0-6.704 6.716-12.139 15-12.139zM31.125 27.209c0 1.748 1.135 3.278 2.875 4.118v0.673c-3.223-0.072-6.181-0.566-8.973-3.316-0.661 0.083-1.337 0.126-2.027 0.126-2.983 0-5.732-0.805-7.925-2.157 4.521-0.016 8.789-1.464 12.026-4.084 1.631-1.32 2.919-2.87 3.825-4.605 0.961-1.84 1.449-3.799 1.449-5.825 0-0.326-0.014-0.651-0.039-0.974 2.268 1.873 3.664 4.426 3.664 7.24 0 3.265-1.88 6.179-4.82 8.086-0.036 0.234-0.055 0.474-0.055 0.718z"></path>
</symbol>
<symbol id="icon-search" viewBox="0 0 32 32">
<path d="M31.008 27.231l-7.58-6.447c-0.784-0.705-1.622-1.029-2.299-0.998 1.789-2.096 2.87-4.815 2.87-7.787 0-6.627-5.373-12-12-12s-12 5.373-12 12 5.373 12 12 12c2.972 0 5.691-1.081 7.787-2.87-0.031 0.677 0.293 1.515 0.998 2.299l6.447 7.58c1.104 1.226 2.907 1.33 4.007 0.23s0.997-2.903-0.23-4.007zM12 20c-4.418 0-8-3.582-8-8s3.582-8 8-8 8 3.582 8 8-3.582 8-8 8z"></path>
</symbol>
<symbol id="icon-zoom-in" viewBox="0 0 32 32">
<path d="M31.008 27.231l-7.58-6.447c-0.784-0.705-1.622-1.029-2.299-0.998 1.789-2.096 2.87-4.815 2.87-7.787 0-6.627-5.373-12-12-12s-12 5.373-12 12 5.373 12 12 12c2.972 0 5.691-1.081 7.787-2.87-0.031 0.677 0.293 1.515 0.998 2.299l6.447 7.58c1.104 1.226 2.907 1.33 4.007 0.23s0.997-2.903-0.23-4.007zM12 20c-4.418 0-8-3.582-8-8s3.582-8 8-8 8 3.582 8 8-3.582 8-8 8zM14 6h-4v4h-4v4h4v4h4v-4h4v-4h-4z"></path>
</symbol>
<symbol id="icon-equalizer" viewBox="0 0 32 32">
<path d="M14 4v-0.5c0-0.825-0.675-1.5-1.5-1.5h-5c-0.825 0-1.5 0.675-1.5 1.5v0.5h-6v4h6v0.5c0 0.825 0.675 1.5 1.5 1.5h5c0.825 0 1.5-0.675 1.5-1.5v-0.5h18v-4h-18zM8 8v-4h4v4h-4zM26 13.5c0-0.825-0.675-1.5-1.5-1.5h-5c-0.825 0-1.5 0.675-1.5 1.5v0.5h-18v4h18v0.5c0 0.825 0.675 1.5 1.5 1.5h5c0.825 0 1.5-0.675 1.5-1.5v-0.5h6v-4h-6v-0.5zM20 18v-4h4v4h-4zM14 23.5c0-0.825-0.675-1.5-1.5-1.5h-5c-0.825 0-1.5 0.675-1.5 1.5v0.5h-6v4h6v0.5c0 0.825 0.675 1.5 1.5 1.5h5c0.825 0 1.5-0.675 1.5-1.5v-0.5h18v-4h-18v-0.5zM8 28v-4h4v4h-4z"></path>
</symbol>
<symbol id="icon-fire" viewBox="0 0 32 32">
<path d="M10.031 32c-2.133-4.438-0.997-6.981 0.642-9.376 1.795-2.624 2.258-5.221 2.258-5.221s1.411 1.834 0.847 4.703c2.493-2.775 2.963-7.196 2.587-8.889 5.635 3.938 8.043 12.464 4.798 18.783 17.262-9.767 4.294-24.38 2.036-26.027 0.753 1.646 0.895 4.433-0.625 5.785-2.573-9.759-8.937-11.759-8.937-11.759 0.753 5.033-2.728 10.536-6.084 14.648-0.118-2.007-0.243-3.392-1.298-5.312-0.237 3.646-3.023 6.617-3.777 10.27-1.022 4.946 0.765 8.568 7.555 12.394z"></path>
</symbol>
<symbol id="icon-power" viewBox="0 0 32 32">
<path d="M12 0l-12 16h12l-8 16 28-20h-16l12-12z"></path>
</symbol>
<symbol id="icon-clipboard" viewBox="0 0 32 32">
<path d="M29 4h-9c0-2.209-1.791-4-4-4s-4 1.791-4 4h-9c-0.552 0-1 0.448-1 1v26c0 0.552 0.448 1 1 1h26c0.552 0 1-0.448 1-1v-26c0-0.552-0.448-1-1-1zM16 2c1.105 0 2 0.895 2 2s-0.895 2-2 2c-1.105 0-2-0.895-2-2s0.895-2 2-2zM28 30h-24v-24h4v3c0 0.552 0.448 1 1 1h14c0.552 0 1-0.448 1-1v-3h4v24z"></path>
<path d="M14 26.828l-6.414-7.414 1.828-1.828 4.586 3.586 8.586-7.586 1.829 1.828z"></path>
</symbol>
<symbol id="icon-list2" viewBox="0 0 32 32">
<path d="M12 2h20v4h-20v-4zM12 14h20v4h-20v-4zM12 26h20v4h-20v-4zM0 4c0-2.209 1.791-4 4-4s4 1.791 4 4c0 2.209-1.791 4-4 4s-4-1.791-4-4zM0 16c0-2.209 1.791-4 4-4s4 1.791 4 4c0 2.209-1.791 4-4 4s-4-1.791-4-4zM0 28c0-2.209 1.791-4 4-4s4 1.791 4 4c0 2.209-1.791 4-4 4s-4-1.791-4-4z"></path>
</symbol>
<symbol id="icon-download2" viewBox="0 0 32 32">
<path d="M28 16h-5l-7 7-7-7h-5l-4 8v2h32v-2l-4-8zM0 28h32v2h-32v-2zM18 10v-8h-4v8h-7l9 9 9-9h-7z"></path>
</symbol>
<symbol id="icon-upload2" viewBox="0 0 32 32">
<path d="M0 28h32v2h-32zM32 24v2h-32v-2l4-8h8v4h8v-4h8zM7 10l9-9 9 9h-7v8h-4v-8z"></path>
</symbol>
<symbol id="icon-star-empty" viewBox="0 0 32 32">
<path d="M32 12.408l-11.056-1.607-4.944-10.018-4.944 10.018-11.056 1.607 8 7.798-1.889 11.011 9.889-5.199 9.889 5.199-1.889-11.011 8-7.798zM16 23.547l-6.983 3.671 1.334-7.776-5.65-5.507 7.808-1.134 3.492-7.075 3.492 7.075 7.807 1.134-5.65 5.507 1.334 7.776-6.983-3.671z"></path>
</symbol>
<symbol id="icon-heart" viewBox="0 0 32 32">
<path d="M23.6 2c-3.363 0-6.258 2.736-7.599 5.594-1.342-2.858-4.237-5.594-7.601-5.594-4.637 0-8.4 3.764-8.4 8.401 0 9.433 9.516 11.906 16.001 21.232 6.13-9.268 15.999-12.1 15.999-21.232 0-4.637-3.763-8.401-8.4-8.401z"></path>
</symbol>
<symbol id="icon-man-woman" viewBox="0 0 32 32">
<path d="M8 3c0 1.657-1.343 3-3 3s-3-1.343-3-3c0-1.657 1.343-3 3-3s3 1.343 3 3z"></path>
<path d="M26 3c0 1.657-1.343 3-3 3s-3-1.343-3-3c0-1.657 1.343-3 3-3s3 1.343 3 3z"></path>
<path d="M8 8h-6c-1.105 0-2 0.895-2 2v10h2v12h2.5v-12h1v12h2.5v-12h2v-10c0-1.105-0.895-2-2-2z"></path>
<path d="M30.469 16l1.531-1.109-4.165-6.441c-0.185-0.281-0.499-0.45-0.835-0.45h-8c-0.336 0-0.65 0.169-0.835 0.45l-4.165 6.441 1.531 1.109 3.458-4.487 1.202 2.804-4.191 7.683h3.833l0.667 10h2v-10h1v10h2l0.667-10h3.833l-4.191-7.683 1.202-2.804 3.458 4.487z"></path>
</symbol>
<symbol id="icon-plus2" viewBox="0 0 32 32">
<path d="M31 12h-11v-11c0-0.552-0.448-1-1-1h-6c-0.552 0-1 0.448-1 1v11h-11c-0.552 0-1 0.448-1 1v6c0 0.552 0.448 1 1 1h11v11c0 0.552 0.448 1 1 1h6c0.552 0 1-0.448 1-1v-11h11c0.552 0 1-0.448 1-1v-6c0-0.552-0.448-1-1-1z"></path>
</symbol>
<symbol id="icon-minus2" viewBox="0 0 32 32">
<path d="M0 13v6c0 0.552 0.448 1 1 1h30c0.552 0 1-0.448 1-1v-6c0-0.552-0.448-1-1-1h-30c-0.552 0-1 0.448-1 1z"></path>
</symbol>
<symbol id="icon-cross" viewBox="0 0 32 32">
<path d="M31.708 25.708c-0-0-0-0-0-0l-9.708-9.708 9.708-9.708c0-0 0-0 0-0 0.105-0.105 0.18-0.227 0.229-0.357 0.133-0.356 0.057-0.771-0.229-1.057l-4.586-4.586c-0.286-0.286-0.702-0.361-1.057-0.229-0.13 0.048-0.252 0.124-0.357 0.228 0 0-0 0-0 0l-9.708 9.708-9.708-9.708c-0-0-0-0-0-0-0.105-0.104-0.227-0.18-0.357-0.228-0.356-0.133-0.771-0.057-1.057 0.229l-4.586 4.586c-0.286 0.286-0.361 0.702-0.229 1.057 0.049 0.13 0.124 0.252 0.229 0.357 0 0 0 0 0 0l9.708 9.708-9.708 9.708c-0 0-0 0-0 0-0.104 0.105-0.18 0.227-0.229 0.357-0.133 0.355-0.057 0.771 0.229 1.057l4.586 4.586c0.286 0.286 0.702 0.361 1.057 0.229 0.13-0.049 0.252-0.124 0.357-0.229 0-0 0-0 0-0l9.708-9.708 9.708 9.708c0 0 0 0 0 0 0.105 0.105 0.227 0.18 0.357 0.229 0.356 0.133 0.771 0.057 1.057-0.229l4.586-4.586c0.286-0.286 0.362-0.702 0.229-1.057-0.049-0.13-0.124-0.252-0.229-0.357z"></path>
</symbol>
<symbol id="icon-loop2" viewBox="0 0 32 32">
<path d="M27.802 5.197c-2.925-3.194-7.13-5.197-11.803-5.197-8.837 0-16 7.163-16 16h3c0-7.18 5.82-13 13-13 3.844 0 7.298 1.669 9.678 4.322l-4.678 4.678h11v-11l-4.198 4.197z"></path>
<path d="M29 16c0 7.18-5.82 13-13 13-3.844 0-7.298-1.669-9.678-4.322l4.678-4.678h-11v11l4.197-4.197c2.925 3.194 7.13 5.197 11.803 5.197 8.837 0 16-7.163 16-16h-3z"></path>
</symbol>
<symbol id="icon-arrow-up" viewBox="0 0 32 32">
<path d="M16 1l-15 15h9v16h12v-16h9z"></path>
</symbol>
<symbol id="icon-arrow-right" viewBox="0 0 32 32">
<path d="M31 16l-15-15v9h-16v12h16v9z"></path>
</symbol>
<symbol id="icon-arrow-down" viewBox="0 0 32 32">
<path d="M16 31l15-15h-9v-16h-12v16h-9z"></path>
</symbol>
<symbol id="icon-arrow-left" viewBox="0 0 32 32">
<path d="M1 16l15 15v-9h16v-12h-16v-9z"></path>
</symbol>
<symbol id="icon-share2" viewBox="0 0 32 32">
<path d="M27 22c-1.411 0-2.685 0.586-3.594 1.526l-13.469-6.734c0.041-0.258 0.063-0.522 0.063-0.791s-0.022-0.534-0.063-0.791l13.469-6.734c0.909 0.94 2.183 1.526 3.594 1.526 2.761 0 5-2.239 5-5s-2.239-5-5-5-5 2.239-5 5c0 0.269 0.022 0.534 0.063 0.791l-13.469 6.734c-0.909-0.94-2.183-1.526-3.594-1.526-2.761 0-5 2.239-5 5s2.239 5 5 5c1.411 0 2.685-0.586 3.594-1.526l13.469 6.734c-0.041 0.258-0.063 0.522-0.063 0.791 0 2.761 2.239 5 5 5s5-2.239 5-5c0-2.761-2.239-5-5-5z"></path>
</symbol>
<symbol id="icon-mail2" viewBox="0 0 32 32">
<path d="M26.667 0h-21.333c-2.934 0-5.334 2.4-5.334 5.334v21.332c0 2.936 2.4 5.334 5.334 5.334h21.333c2.934 0 5.333-2.398 5.333-5.334v-21.332c0-2.934-2.399-5.334-5.333-5.334zM26.667 4c0.25 0 0.486 0.073 0.688 0.198l-11.355 9.388-11.355-9.387c0.202-0.125 0.439-0.198 0.689-0.198h21.333zM5.334 28c-0.060 0-0.119-0.005-0.178-0.013l7.051-9.78-0.914-0.914-7.293 7.293v-19.098l12 14.512 12-14.512v19.098l-7.293-7.293-0.914 0.914 7.051 9.78c-0.058 0.008-0.117 0.013-0.177 0.013h-21.333z"></path>
</symbol>
<symbol id="icon-facebook" viewBox="0 0 32 32">
<path d="M19 6h5v-6h-5c-3.86 0-7 3.14-7 7v3h-4v6h4v16h6v-16h5l1-6h-6v-3c0-0.542 0.458-1 1-1z"></path>
</symbol>
<symbol id="icon-youtube" viewBox="-35.20005 -41.33325 305.0671 247.9995">
<path d="M229.763 25.817c-2.699-10.162-10.65-18.165-20.748-20.881C190.716 0 117.333 0 117.333 0S43.951 0 25.651 4.936C15.553 7.652 7.6 15.655 4.903 25.817 0 44.236 0 82.667 0 82.667s0 38.429 4.903 56.85C7.6 149.68 15.553 157.681 25.65 160.4c18.3 4.934 91.682 4.934 91.682 4.934s73.383 0 91.682-4.934c10.098-2.718 18.049-10.72 20.748-20.882 4.904-18.421 4.904-56.85 4.904-56.85s0-38.431-4.904-56.85" fill="red"/><path d="M93.333 117.559l61.333-34.89-61.333-34.894z" fill="#fff"/>
</symbol>
<symbol id="flag-us" viewBox="0 0 7410 3900">
<rect width="7410" height="3900" fill="#b22234"/>
<path d="M0,450H7410m0,600H0m0,600H7410m0,600H0m0,600H7410m0,600H0" stroke="#fff" stroke-width="300"/>
<rect width="2964" height="2100" fill="#3c3b6e"/>
<g fill="#fff">
<g id="s18">
<g id="s9">
<g id="s5">
<g id="s4">
<path id="s" d="M247,90 317.534230,307.082039 132.873218,172.917961H361.126782L176.465770,307.082039z"/>
<use xlink:href="#s" y="420"/>
<use xlink:href="#s" y="840"/>
<use xlink:href="#s" y="1260"/>
</g>
<use xlink:href="#s" y="1680"/>
</g>
<use xlink:href="#s4" x="247" y="210"/>
</g>
<use xlink:href="#s9" x="494"/>
</g>
<use xlink:href="#s18" x="988"/>
<use xlink:href="#s9" x="1976"/>
<use xlink:href="#s5" x="2470"/>
</g>
</symbol>
<symbol id="flag-eu" viewBox="0 0 810 540">
<defs><g id="d"><g id="b"><path id="a" d="M0 0v1h.5z" transform="rotate(18 3.157 -.5)"/><use xlink:href="#a" transform="scale(-1 1)"/></g><g id="c"><use xlink:href="#b" transform="rotate(72)"/><use xlink:href="#b" transform="rotate(144)"/></g><use xlink:href="#c" transform="scale(-1 1)"/></g></defs><path fill="#039" d="M0 0h810v540H0z"/><g fill="#fc0" transform="matrix(30 0 0 30 405 270)"><use xlink:href="#d" y="-6"/><use xlink:href="#d" y="6"/><g id="e"><use xlink:href="#d" x="-6"/><use xlink:href="#d" transform="rotate(-144 -2.344 -2.11)"/><use xlink:href="#d" transform="rotate(144 -2.11 -2.344)"/><use xlink:href="#d" transform="rotate(72 -4.663 -2.076)"/><use xlink:href="#d" transform="rotate(72 -5.076 .534)"/></g><use xlink:href="#e" transform="scale(-1 1)"/></g>
</symbol>
<symbol id="flag-nz" viewBox="0 0 1200 600">
<defs>
<clipPath id="Canton">
<path d="M 0,0 L 600,0 L 600,300 L 0,300 z"/>
</clipPath>

<clipPath id="Diagonals">
<path d="M 0,0 L 300,150 L 0,150 z M 300,0 L 600,0 L 300,150 z M 300,150 L 600,150 L 600,300 z M 300,150 L 300,300 L 0,300 z"/>
</clipPath>

<g id="Pentagram">
<g id="Arm" transform="translate(0,-0.324925)">
<path d="M 0,0 L 0,0.5 L 1,0 z"/>
<path d="M 0,0 L 0,-0.5 L 1,0 z" transform="rotate(-36,1,0)"/>
</g>
<use xlink:href="#Arm" transform="scale(-1,1)"/>
<use xlink:href="#Arm" transform="rotate(72,0,0)"/>
<use xlink:href="#Arm" transform="rotate(-72,0,0)"/>
<use xlink:href="#Arm" transform="rotate(-72,0,0) scale(-1,1)"/>
</g>
</defs>

<rect fill="#00247d" x="0" y="0" width="1200" height="600"/>

<g id="Flag_of_the_United_Kingdom">
<path id="Saint_Andrews_Cross" stroke="#ffffff" d="M 0,0 L 600,300 M 0,300 L 600,0" stroke-width="60" clip-path="url(#Canton)"/>
<path id="Saint_Patricks_Cross" stroke="#cc142b" d="M 0,0 L 600,300 M 0,300 L 600,0" stroke-width="40" clip-path="url(#Diagonals)"/>
<g id="Saint_Georges_Cross">
<path stroke="#ffffff" d="M 300,0 L 300,300 M 0,150 L 600,150" stroke-width="100" clip-path="url(#Canton)"/>
<path stroke="#cc142b" d="M 300,0 L 300,300 M 0,150 L 600,150" stroke-width="60" clip-path="url(#Canton)"/>
</g>
</g>

<g id="Southern_Cross">
<g id="Gamma_Crucis">
<use xlink:href="#Pentagram" fill="#ffffff" transform="translate(900,120) scale(45.4)"/>
<use xlink:href="#Pentagram" fill="#cc142b" transform="translate(900,120) scale(30)"/>
</g>
<g transform="rotate(82,900,240)">
<g id="Delta_Crucis">
<use xlink:href="#Pentagram" fill="#ffffff" transform="translate(900,120) rotate(-82) scale(40.4)"/>
<use xlink:href="#Pentagram" fill="#cc142b" transform="translate(900,120) rotate(-82) scale(25)"/>
</g>
<g id="Beta_Crucis">
<use xlink:href="#Pentagram" fill="#ffffff" transform="translate(900,380) rotate(-82) scale(45.4)"/>
<use xlink:href="#Pentagram" fill="#cc142b" transform="translate(900,380) rotate(-82) scale(30)"/>
</g>
</g>
<g id="Alpha_Crucis">
<use xlink:href="#Pentagram" fill="#ffffff" transform="translate(900,480) scale(50.4)"/>
<use xlink:href="#Pentagram" fill="#cc142b" transform="translate(900,480) scale(35)"/>
</g>
</g>
</symbol>
<symbol id="flag-can" viewBox="0 0 9600 4800">
<path fill="#d52b1e" d="M0 0h2400l99 99h4602l99-99h2400v4800H7200l-99-99H2499l-99 99H0z"/><path fill="#fff" d="M2400 0h4800v4800H2400zm2490 4430l-45-863a95 95 0 01111-98l859 151-116-320a65 65 0 0120-73l941-762-212-99a65 65 0 01-34-79l186-572-542 115a65 65 0 01-73-38l-105-247-423 454a65 65 0 01-111-57l204-1052-327 189a65 65 0 01-91-27l-332-652-332 652a65 65 0 01-91 27l-327-189 204 1052a65 65 0 01-111 57l-423-454-105 247a65 65 0 01-73 38l-542-115 186 572a65 65 0 01-34 79l-212 99 941 762a65 65 0 0120 73l-116 320 859-151a95 95 0 01111 98l-45 863z"/>
</symbol>
<symbol id="flag-aus" viewBox="0 0 10080 5040">
<defs>
<clipPath id="c">
<path d="M0,0V1.5H7V3H6zM6,0H3V3.5H0V3z"/>
</clipPath>
<path id="Star7" d="M0,-360 69.421398,-144.155019 281.459334,-224.456329 155.988466,-35.603349 350.974048,80.107536 125.093037,99.758368 156.198146,324.348792 0,160 -156.198146,324.348792 -125.093037,99.758368 -350.974048,80.107536 -155.988466,-35.603349 -281.459334,-224.456329 -69.421398,-144.155019z"/>
<path id="Star5" d="M0,-210 54.859957,-75.508253 199.721868,-64.893569 88.765275,28.841586 123.434903,169.893569 0,93.333333 -123.434903,169.893569 -88.765275,28.841586 -199.721868,-64.893569 -54.859957,-75.508253z"/>
<use id="Cstar" xlink:href="#Star7" transform="scale(2.1)"/>
</defs>
<g transform="scale(840)">
<rect width="12" height="6" fill="#00008b"/>
<path d="M0,0 6,3M6,0 0,3" stroke="#fff" stroke-width="0.6"/>
<path d="M0,0 6,3M6,0 0,3" stroke="#f00" stroke-width="0.4" clip-path="url(#c)"/>
<path d="M3,0V3.5M0,1.5H7" stroke="#fff"/>
<path d="M3,0V3.5M0,1.5H7" stroke="#f00" stroke-width="0.6"/>
<path d="M0,3H6V0H8V4H0z" fill="#00008b"/>
</g>
<g fill="#fff">
<use id="Comwlth" xlink:href="#Cstar" x="2520" y="3780"/>
<use id="Crucis" xlink:href="#Star7" x="7560" y="4200"/>
<use id="Crucis" xlink:href="#Star7" x="6300" y="2205"/>
<use id="Crucis" xlink:href="#Star7" x="7560" y="840"/>
<use id="Crucis" xlink:href="#Star7" x="8680" y="1869"/>
<use id="Crucis" xlink:href="#Star5" x="8064" y="2730"/>
</g>
</symbol>
<symbol id="flag-uk" viewBox="0 0 60 30">
<clipPath id="a"><path d="M0 0v30h60V0z"/></clipPath><clipPath id="b"><path d="M30 15h30v15zv15H0zH0V0zV0h30z"/></clipPath><g clip-path="url(#a)"><path d="M0 0v30h60V0z" fill="#012169"/><path d="M0 0l60 30m0-30L0 30" stroke="#fff" stroke-width="6"/><path d="M0 0l60 30m0-30L0 30" clip-path="url(#b)" stroke="#C8102E" stroke-width="4"/><path d="M30 0v30M0 15h60" stroke="#fff" stroke-width="10"/><path d="M30 0v30M0 15h60" stroke="#C8102E" stroke-width="6"/></g>
</symbol>
</defs>
</svg>
